<svg width="376" height="145" viewBox="0 0 376 145" fill="none" xmlns="http://www.w3.org/2000/svg">
<path d="M129.999 113H107.199V142.4H75.5992V113H0.199219V91.2004L66.1992 2.40039H100.199L38.9992 86.6004H76.5992V60.4004H107.199V86.6004H129.999V113Z" fill="black"/>
<path d="M185 135.5C173.4 135.5 167.557 134.734 158.49 129C149.423 123.267 141.7 119.3 136.5 108.5C131.433 97.5671 129.999 87.4671 129.999 72.4004C129.999 57.3337 135.933 51.8004 141 41.0004C146.2 30.0671 149.423 19.7337 158.49 14.0004C167.557 8.26707 173.4 8.59999 185 8.59999C196.6 8.59999 205.433 8.26707 214.5 14.0004C223.567 19.7337 228.433 25.0671 233.5 36.0004C238.7 46.8004 240 57.3337 240 72.4004C240 87.4671 238.7 93.5671 233.5 104.5C228.433 115.3 223.567 123.267 214.5 129C205.433 134.734 196.6 135.5 185 135.5ZM186.5 124C195.033 124 214.2 115.834 219 108.5C223.933 101.167 219 86.8333 219 71.5C219 56.1667 210.623 45.7337 205.69 38.4004C200.89 31.0671 196.033 21.5 187.5 21.5C179.1 21.5 163.933 29.1667 159 36.5C154.2 43.8333 152 58.6667 152 74C152 89.3333 155.7 105.667 160.5 113C165.433 120.334 178.1 124 186.5 124Z" fill="black"/>
<path d="M375.632 113H352.832V142.4H321.232V113H245.832V91.2004L311.832 2.40039H345.832L284.632 86.6004H322.232V60.4004H352.832V86.6004H375.632V113Z" fill="black"/>
<path fill-rule="evenodd" clip-rule="evenodd" d="M130.259 104.313C131.093 106.765 132.037 109.127 133.09 111.4C138.29 122.2 145.424 130.467 154.49 136.2C163.557 141.933 173.89 144.8 185.49 144.8C197.09 144.8 207.424 141.933 216.49 136.2C225.557 130.467 232.624 122.2 237.69 111.4C242.89 100.467 245.49 87.4667 245.49 72.4C245.49 57.3333 242.89 44.4 237.69 33.6C232.624 22.6667 225.557 14.3333 216.49 8.59999C207.424 2.86666 197.09 0 185.49 0C173.89 0 163.557 2.86666 154.49 8.59999C145.424 14.3333 138.29 22.6667 133.09 33.6C128.024 44.4 125.49 57.3333 125.49 72.4C125.49 77.357 125.764 82.0904 126.313 86.6H126.203C127.298 92.7455 128.659 98.6656 130.259 104.313ZM185.49 117.4C194.024 117.4 200.69 113.733 205.49 106.4C210.424 99.0667 212.89 87.7333 212.89 72.4C212.89 57.0667 210.424 45.7333 205.49 38.4C200.69 31.0667 194.024 27.4 185.49 27.4C177.09 27.4 170.424 31.0667 165.49 38.4C160.69 45.7333 158.29 57.0667 158.29 72.4C158.29 87.7333 160.69 99.0667 165.49 106.4C170.424 113.733 177.09 117.4 185.49 117.4Z" fill="#FC2F28"/>
</svg>
