<svg viewBox="0 0 20 15" fill="none" xmlns="http://www.w3.org/2000/svg">
<path d="M12.8951 7.26336C12.8951 11.2748 9.61551 14.5267 9.61551 14.5267C9.61551 14.5267 6.33594 11.2748 6.33594 7.26336C6.33594 3.25195 9.61551 0 9.61551 0C9.61551 0 12.8951 3.25195 12.8951 7.26336Z" fill="#F3F3F3"/>
<path d="M15.6427 10.4371C13.8808 13.6589 9.61539 14.5266 9.61539 14.5266C9.61539 14.5266 8.20648 10.1707 9.96845 6.94887C11.7304 3.72705 15.9958 2.85938 15.9958 2.85938C15.9958 2.85938 17.4047 7.21529 15.6427 10.4371Z" fill="#F3F3F3"/>
<path d="M15.9104 14.1465C13.2501 15.8155 9.61719 14.5229 9.61719 14.5229C9.61719 14.5229 10.2974 10.5246 12.9577 8.85565C15.618 7.18669 19.2509 8.47928 19.2509 8.47928C19.2509 8.47928 18.5708 12.4775 15.9104 14.1465Z" fill="#F3F3F3"/>
<path d="M3.34052 14.1466C6.00086 15.8156 9.63376 14.523 9.63376 14.523C9.63376 14.523 8.95357 10.5247 6.29323 8.85575C3.6329 7.18679 0 8.47909 0 8.47909C0 8.47909 0.680186 12.4776 3.34052 14.1466Z" fill="#F3F3F3"/>
<path d="M3.58942 10.4371C5.3514 13.6589 9.61676 14.5266 9.61676 14.5266C9.61676 14.5266 11.0257 10.1707 9.2637 6.94887C7.50173 3.72705 3.23637 2.85938 3.23637 2.85938C3.23637 2.85938 1.82773 7.21529 3.58942 10.4371Z" fill="#F3F3F3"/>
</svg>
