<svg viewBox="0 0 26 20" fill="none" xmlns="http://www.w3.org/2000/svg">
<path d="M17.1937 9.68445C17.1937 15.033 12.821 19.3689 12.821 19.3689C12.821 19.3689 8.44824 15.033 8.44824 9.68445C8.44824 4.33591 12.821 0 12.821 0C12.821 0 17.1937 4.33591 17.1937 9.68445Z" fill="#FF7AB2"/>
<path d="M17.1937 9.68445C17.1937 15.033 12.821 19.3689 12.821 19.3689C12.821 19.3689 8.44824 15.033 8.44824 9.68445C8.44824 4.33591 12.821 0 12.821 0C12.821 0 17.1937 4.33591 17.1937 9.68445Z" fill="url(#paint0_linear)" fill-opacity="0.5"/>
<path d="M20.857 13.9161C18.5077 18.2119 12.8205 19.3688 12.8205 19.3688C12.8205 19.3688 10.942 13.5609 13.2913 9.26514C15.6406 4.96939 21.3277 3.8125 21.3277 3.8125C21.3277 3.8125 23.2062 9.62036 20.857 13.9161Z" fill="#FF7AB2"/>
<path d="M20.857 13.9161C18.5077 18.2119 12.8205 19.3688 12.8205 19.3688C12.8205 19.3688 10.942 13.5609 13.2913 9.26514C15.6406 4.96939 21.3277 3.8125 21.3277 3.8125C21.3277 3.8125 23.2062 9.62036 20.857 13.9161Z" fill="url(#paint1_linear)" fill-opacity="0.5"/>
<path d="M21.2142 18.8626C17.6671 21.0879 12.8232 19.3645 12.8232 19.3645C12.8232 19.3645 13.7302 14.0335 17.2773 11.8082C20.8244 9.58291 25.6682 11.3064 25.6682 11.3064C25.6682 11.3064 24.7613 16.6373 21.2142 18.8626Z" fill="#FF7AB2"/>
<path d="M21.2142 18.8626C17.6671 21.0879 12.8232 19.3645 12.8232 19.3645C12.8232 19.3645 13.7302 14.0335 17.2773 11.8082C20.8244 9.58291 25.6682 11.3064 25.6682 11.3064C25.6682 11.3064 24.7613 16.6373 21.2142 18.8626Z" fill="url(#paint2_linear)" fill-opacity="0.5"/>
<path d="M4.45401 18.8628C8.00111 21.088 12.845 19.3646 12.845 19.3646C12.845 19.3646 11.938 14.0336 8.39095 11.8083C4.84384 9.58305 0 11.3061 0 11.3061C0 11.3061 0.906911 16.6375 4.45401 18.8628Z" fill="#FF7AB2"/>
<path d="M4.45401 18.8628C8.00111 21.088 12.845 19.3646 12.845 19.3646C12.845 19.3646 11.938 14.0336 8.39095 11.8083C4.84384 9.58305 0 11.3061 0 11.3061C0 11.3061 0.906911 16.6375 4.45401 18.8628Z" fill="url(#paint3_linear)" fill-opacity="0.5"/>
<path d="M4.78329 13.9161C7.13258 18.2119 12.8197 19.3688 12.8197 19.3688C12.8197 19.3688 14.6983 13.5609 12.349 9.26514C9.99968 4.96939 4.31255 3.8125 4.31255 3.8125C4.31255 3.8125 2.43437 9.62036 4.78329 13.9161Z" fill="#FF7AB2"/>
<path d="M4.78329 13.9161C7.13258 18.2119 12.8197 19.3688 12.8197 19.3688C12.8197 19.3688 14.6983 13.5609 12.349 9.26514C9.99968 4.96939 4.31255 3.8125 4.31255 3.8125C4.31255 3.8125 2.43437 9.62036 4.78329 13.9161Z" fill="url(#paint4_linear)" fill-opacity="0.5"/>
<path fill-rule="evenodd" clip-rule="evenodd" d="M14 19.6838C15.6566 20.0477 18.7481 20.4084 21.2132 18.8619C24.7603 16.6366 25.6672 11.3056 25.6672 11.3056C25.6672 11.3056 23.9977 10.7116 21.9011 10.6713C22.4144 7.1725 21.3277 3.81275 21.3277 3.81275C21.3277 3.81275 18.857 4.31534 16.4999 5.88803C15.8294 4.00554 14.7998 2.42921 14 1.38281V19.6838Z" fill="#F3F3F3"/>
<defs>
<linearGradient id="paint0_linear" x1="12.821" y1="0" x2="12.821" y2="19.3689" gradientUnits="userSpaceOnUse">
<stop stop-color="white"/>
<stop offset="1" stop-color="white" stop-opacity="0"/>
</linearGradient>
<linearGradient id="paint1_linear" x1="17.0741" y1="3.8125" x2="17.0741" y2="19.3688" gradientUnits="userSpaceOnUse">
<stop stop-color="white"/>
<stop offset="1" stop-color="white" stop-opacity="0"/>
</linearGradient>
<linearGradient id="paint2_linear" x1="19.2457" y1="10.6699" x2="19.2457" y2="20.0009" gradientUnits="userSpaceOnUse">
<stop stop-color="white"/>
<stop offset="1" stop-color="white" stop-opacity="0"/>
</linearGradient>
<linearGradient id="paint3_linear" x1="6.42248" y1="10.6699" x2="6.42248" y2="20.001" gradientUnits="userSpaceOnUse">
<stop stop-color="white"/>
<stop offset="1" stop-color="white" stop-opacity="0"/>
</linearGradient>
<linearGradient id="paint4_linear" x1="8.56621" y1="3.8125" x2="8.56621" y2="19.3688" gradientUnits="userSpaceOnUse">
<stop stop-color="white"/>
<stop offset="1" stop-color="white" stop-opacity="0"/>
</linearGradient>
</defs>
</svg>
