<svg viewBox="0 0 33 25" fill="none" xmlns="http://www.w3.org/2000/svg">
<path fill-rule="evenodd" clip-rule="evenodd" d="M23.6395 16.716C25.3681 15.8561 33 9.28254 33 0C32.4571 0.265039 31.1466 2.35454 29.3057 3.59961C22.4976 8.21314 19.0311 6.54894 11.6363 7.89263C6.06683 8.90656 1.02779 12.5616 0.263349 18.4048C0.0542986 20.0136 -0.276438 23.5793 0.425597 25C0.793775 24.812 0.715771 24.624 1.04027 24.3497C3.06837 22.6239 5.4584 23.1016 8.04813 23.5454C14.1668 24.5932 19.2276 23.7919 24.5257 20.405C25.2995 19.9088 29.8299 16.3924 30.0047 15.7575C29.3619 15.8099 24.7066 17.2091 23.6395 16.716Z" fill="url(#paint0_linear)"/>
<defs>
<linearGradient id="paint0_linear" x1="5.99813" y1="22.8267" x2="28.6793" y2="3.66466" gradientUnits="userSpaceOnUse">
<stop stop-color="#BB1C0E"/>
<stop offset="0.27" stop-color="#CE014E"/>
<stop offset="1" stop-color="#E53012"/>
</linearGradient>
</defs>
</svg>
