<svg viewBox="0 0 75 75" fill="none" xmlns="http://www.w3.org/2000/svg">
<path d="M63.5 60.3367C62.55 59.6284 61.325 59.4076 60.1875 59.7367L51.25 62.3742V51.2492H55C55.5063 51.2513 55.9625 50.9451 56.15 50.4742C56.3458 50.0096 56.2417 49.4701 55.8875 49.1117L47.1375 40.3617C46.6458 39.8742 45.8542 39.8742 45.3625 40.3617L36.6125 49.1117C36.2583 49.4721 36.1542 50.0096 36.35 50.4742C36.5375 50.943 36.9938 51.2513 37.5 51.2492H41.25V64.9992H32.825L26.075 61.2492H36.25C38.3188 61.243 39.9938 59.568 40 57.4992V56.8742C39.9958 55.2138 38.9042 53.7513 37.3125 53.2742L30 51.1242V44.9992H33.75C34.2563 45.0013 34.7125 44.6951 34.9 44.2242C35.0958 43.7596 34.9917 43.2201 34.6375 42.8617L25.8875 34.1117C25.3958 33.6242 24.6042 33.6242 24.1125 34.1117L15.3625 42.8617C15.0083 43.2221 14.9042 43.7596 15.1 44.2242C15.2875 44.693 15.7438 45.0013 16.25 44.9992H20V48.1867L17.85 47.5492C17.7375 47.5138 17.6188 47.4971 17.5 47.4992H10V44.9992C10 44.3096 9.43958 43.7492 8.75 43.7492H1.25C0.560417 43.7492 0 44.3096 0 44.9992V72.4992C0 73.1888 0.560417 73.7492 1.25 73.7492H8.75C9.43958 73.7492 10 73.1888 10 72.4992V70.4867L23.35 74.9367C23.4813 74.9763 23.6146 74.9971 23.75 74.9992H42.5C42.6417 74.9992 42.7812 74.9742 42.9125 74.9242L62.5 68.0117C63.9979 67.4826 65 66.0638 65 64.4742V63.3367C65.0042 62.1555 64.4458 61.043 63.5 60.3367ZM7.5 71.2492H2.5V46.2492H7.5V71.2492ZM40.5125 48.7492L46.25 43.0117L51.9875 48.7492H50C49.3104 48.7492 48.75 49.3096 48.75 49.9992V63.1117L43.75 64.5742V49.9992C43.75 49.3096 43.1896 48.7492 42.5 48.7492H40.5125ZM19.2625 42.4992L25 36.7617L30.7375 42.4992H28.75C28.0604 42.4992 27.5 43.0596 27.5 43.7492V50.3867L22.5 48.9117V43.7492C22.5 43.0596 21.9396 42.4992 21.25 42.4992H19.2625ZM62.5 64.4742C62.5042 65.0076 62.1667 65.4867 61.6625 65.6617L42.2875 72.4992H23.95L10 67.8492V49.9992H17.325L36.6 55.6742C37.1312 55.8326 37.4958 56.3201 37.5 56.8742V57.4992C37.5 58.1888 36.9396 58.7492 36.25 58.7492H21.25C20.6833 58.7513 20.1875 59.1346 20.0438 59.6826C19.9 60.2305 20.1438 60.8076 20.6354 61.0867L31.8854 67.3367C32.0708 67.4451 32.2833 67.5013 32.4979 67.4992H42.4979C42.6167 67.5013 42.7354 67.4846 42.8479 67.4492L60.8979 62.1367C61.275 62.0263 61.6833 62.0992 61.9979 62.3367C62.3125 62.5721 62.4979 62.943 62.4979 63.3367V64.4742H62.5Z" fill="#FC2F28"/>
<path d="M40.0007 0C32.4173 0 25.5798 4.56875 22.6778 11.575C19.7757 18.5812 21.3798 26.6458 26.7423 32.0083C32.1048 37.3708 40.1694 38.975 47.1757 36.0729C54.1819 33.1708 58.7507 26.3333 58.7507 18.75C58.7382 8.4 50.3507 0.0125 40.0007 0ZM56.1882 17.5H53.6882C53.5403 15.9417 53.1298 14.4208 52.4757 13L54.6382 11.7375C55.5048 13.5458 56.0298 15.5 56.1882 17.5ZM49.1757 5.35C50.8278 6.48958 52.2611 7.92292 53.4007 9.575L51.2257 10.825C50.3153 9.55208 49.1986 8.4375 47.9257 7.525L49.1757 5.35ZM41.2507 2.5625C43.2507 2.71875 45.2048 3.24583 47.0132 4.1125L45.7507 6.275C44.3298 5.62083 42.8069 5.21042 41.2507 5.0625V2.5625ZM38.7507 2.5625V5.0625C37.1923 5.21042 35.6715 5.62083 34.2507 6.275L32.9882 4.1125C34.7965 3.24583 36.7507 2.71875 38.7507 2.5625ZM30.8257 5.35L32.0757 7.525C30.8028 8.4375 29.6882 9.55208 28.7757 10.825L26.6007 9.575C27.7403 7.92292 29.1736 6.48958 30.8257 5.35ZM25.3632 11.7375L27.5257 13C26.8715 14.4208 26.4611 15.9437 26.3132 17.5H23.8132C23.9694 15.5 24.4965 13.5458 25.3632 11.7375ZM23.8132 20H26.3132C26.4611 21.5583 26.8715 23.0792 27.5257 24.5L25.3632 25.7625C24.4965 23.9542 23.9694 22 23.8132 20ZM30.8257 32.15C29.1736 31.0104 27.7403 29.5771 26.6007 27.925L28.7757 26.675C29.6882 27.9479 30.8028 29.0646 32.0757 29.975L30.8257 32.15ZM38.7507 34.9375C36.7507 34.7812 34.7965 34.2542 32.9882 33.3875L34.2507 31.225C35.6715 31.8792 37.1923 32.2896 38.7507 32.4375V34.9375ZM28.7507 18.75C28.7507 14.2 31.4923 10.0979 35.6965 8.35625C39.9007 6.61458 44.7382 7.57708 47.9569 10.7958C51.1736 14.0146 52.1361 18.8521 50.3965 23.0562C48.6528 27.2583 44.5507 30 40.0007 30C33.7903 29.9896 28.7611 24.9583 28.7507 18.75ZM41.2507 34.9375V32.4375C42.809 32.2896 44.3298 31.8792 45.7507 31.225L47.0132 33.3875C45.2048 34.2542 43.2507 34.7812 41.2507 34.9375ZM49.1757 32.15L47.9257 29.975C49.1986 29.0646 50.3132 27.9479 51.2257 26.675L53.4007 27.925C52.2611 29.5771 50.8278 31.0104 49.1757 32.15ZM54.6382 25.7625L52.4757 24.5C53.1298 23.0792 53.5403 21.5583 53.6882 20H56.1882C56.0298 22 55.5048 23.9542 54.6382 25.7625Z" fill="#FC2F28"/>
<path d="M38.75 27.5H41.25V25C42.6313 25 43.75 23.8813 43.75 22.5V20C43.75 18.6188 42.6313 17.5 41.25 17.5H38.75V15H43.75V12.5H41.25V10H38.75V12.5C37.3688 12.5 36.25 13.6188 36.25 15V17.5C36.25 18.8813 37.3688 20 38.75 20H41.25V22.5H36.25V25H38.75V27.5Z" fill="#FC2F28"/>
<path d="M74.633 40.3676L65.883 31.6176C65.3955 31.1301 64.6039 31.1301 64.1164 31.6176L55.3664 40.3676C55.008 40.7259 54.9018 41.2634 55.0955 41.7301C55.2893 42.1968 55.7455 42.5009 56.2497 42.5009H59.9997V55.0009C59.9997 55.6905 60.5601 56.2509 61.2497 56.2509H68.7497C69.4393 56.2509 69.9997 55.6905 69.9997 55.0009V42.5009H73.7497C74.256 42.5009 74.7101 42.1968 74.9039 41.7301C75.0976 41.2613 74.9914 40.7238 74.633 40.3676ZM68.7497 40.0009C68.0601 40.0009 67.4997 40.5613 67.4997 41.2509V53.7509H62.4997V41.2509C62.4997 40.5613 61.9393 40.0009 61.2497 40.0009H59.2664L64.9997 34.2676L70.733 40.0009H68.7497Z" fill="#FC2F28"/>
<path d="M1.24924 32.5009H4.99924V40.0009C4.99924 40.6905 5.55965 41.2509 6.24924 41.2509H13.7492C14.4388 41.2509 14.9992 40.6905 14.9992 40.0009V32.5009H18.7492C19.2555 32.5009 19.7097 32.1967 19.9034 31.7301C20.0972 31.2634 19.9888 30.7259 19.6326 30.3676L10.8826 21.6176C10.3951 21.1301 9.6034 21.1301 9.1159 21.6176L0.365902 30.3676C0.00965198 30.7259 -0.0986813 31.2634 0.0950687 31.7301C0.288819 32.1967 0.742985 32.5009 1.24924 32.5009ZM9.99924 24.2676L15.7326 30.0009H13.7492C13.0597 30.0009 12.4992 30.5613 12.4992 31.2509V38.7509H7.49924V31.2509C7.49924 30.5613 6.93882 30.0009 6.24924 30.0009H4.2659L9.99924 24.2676Z" fill="#FC2F28"/>
</svg>
