<svg viewBox="0 0 80 75" fill="none" xmlns="http://www.w3.org/2000/svg">
<g>
<path d="M75.1271 22.3099H61.6726C59.3523 22.3099 57.4618 24.2004 57.4618 26.5227V42.0083H52.4288C52.7077 40.9917 52.8131 39.7934 52.7428 38.3967C52.6333 32.5 51.5631 27.5289 49.5631 23.624C48.0093 20.5909 46.1953 18.7748 44.6395 17.688C46.466 15.8099 47.5217 13.1384 47.5217 10.0558C47.5238 4.51033 43.0982 0 37.6643 0C32.2283 0 27.8048 4.51033 27.8048 10.0558C27.8048 10.6983 28.3255 11.219 28.968 11.219H29.7573C29.685 11.657 29.6457 12.1054 29.6457 12.5579C29.6457 16.4669 32.437 19.7314 36.1292 20.4628C35.7428 21.8988 35.5507 23.593 35.5507 25.5186L32.6519 28.0124L25.5982 28.5826L17.4618 25.8926C16.7159 25.6446 15.8709 25.3636 15.1374 25.8926C14.4143 26.4132 14.4143 27.3264 14.4143 27.6281V33.6777C14.4143 34.3202 14.935 34.8409 15.5775 34.8409H16.9618L14.8378 42.1694C14.6602 42.7872 15.0155 43.4298 15.6312 43.6095C16.249 43.7893 16.8936 43.4339 17.0713 42.8161L19.3812 34.8368H22.685C18.5755 47.3678 20.9205 55.7335 24.5238 64.1983H22.435L13.7325 54.469L15.5734 48.1116C15.7511 47.4959 15.3957 46.8512 14.78 46.6715C14.1643 46.4938 13.5197 46.8492 13.342 47.4649L11.5817 53.5455C6.1395 53.4545 1.26967 57.2066 0.0299962 62.6074C-0.114632 63.2335 0.27793 63.8574 0.901897 64L2.55066 64.3802C2.12917 68.7583 5.0114 72.8884 9.41016 73.9008C10.0775 74.0558 10.7511 74.1302 11.4205 74.1302C13.0693 74.1302 14.6891 73.6674 16.123 72.7686C17.8048 71.7149 19.0589 70.1653 19.7366 68.3347L21.0383 68.6343C21.4267 68.7231 21.7945 68.7707 22.1622 68.5723C22.5052 68.3884 22.7304 68.0558 22.8172 67.6818C22.8978 67.3017 22.9618 66.9153 23.0052 66.5248H47.311C48.0879 71.3574 52.2015 75 57.1106 75C62.0217 75 66.1333 71.3574 66.9102 66.5248H67.7965C67.7965 66.5248 67.9722 66.5269 68.0135 66.5269C68.3461 66.5269 68.8255 66.4897 69.2201 66.0888C69.4164 65.8884 69.6478 65.5289 69.6312 64.9587C69.5982 63.8678 69.435 62.8141 69.156 61.812C70.0817 56.1922 69.1912 52.7686 67.8709 50.0909C68.7056 49.5434 69.2593 48.6012 69.2593 47.5289V44.3347H75.1292C77.4515 44.3347 79.3399 42.4463 79.3399 40.1219V26.5248C79.3379 24.2004 77.4494 22.3099 75.1271 22.3099ZM14.8874 70.8017C13.3998 71.7335 11.6395 72.031 9.93082 71.6364C6.7862 70.9132 4.68702 68.0289 4.83991 64.9091L17.4453 67.8099C16.9246 69.0393 16.0424 70.0785 14.8874 70.8017ZM20.7036 66.1736L2.62504 62.0124C4.01967 58.1922 7.77586 55.6632 11.8792 55.8802L20.7345 65.7831C20.7263 65.9153 20.7159 66.0455 20.7036 66.1736ZM38.2573 45.9215C37.9205 46.812 37.9205 47.9091 37.9205 49.4256V53.812H33.6643V47.7955C33.6643 40.9938 37.3771 39.781 39.0424 39.5806H50.437C50.3916 41.124 50.0424 42.2211 49.3812 42.9194C48.6106 43.7314 47.2924 44.126 45.3482 44.1281L41.1767 44.1322C39.6891 44.1322 38.7077 44.7335 38.2573 45.9215ZM37.9205 56.1364V58.9112C37.9102 58.9112 37.8998 58.9112 37.8874 58.9112H29.6333C29.7263 58.0496 29.9949 57.3843 30.435 56.9236C31.0899 56.2376 32.0114 56.1364 32.5031 56.1364H37.9205ZM50.3854 37.2562H39.8151C39.3895 35.9215 39.0135 34.4587 38.7015 32.9545L41.9143 30.8698C43.6684 29.7293 44.5817 28.1198 44.4184 26.4525C44.2738 24.9731 43.2697 23.6529 41.8585 23.0888C40.5693 22.5723 39.1829 22.7355 37.9577 23.5186C38.0589 22.407 38.2469 21.4153 38.5176 20.5723C39.0135 20.5207 39.5052 20.4256 39.9887 20.281C40.9721 20.0517 41.8812 19.688 42.7015 19.2066C44.9412 20.5455 49.8647 24.8822 50.3854 37.2562ZM30.2139 8.89256C30.7614 5.17975 33.8936 2.32438 37.6643 2.32438C41.8172 2.32438 45.1994 5.79339 45.1994 10.0558C45.1994 13.5227 43.5362 16.3161 40.8564 17.5475V11.4318C40.8564 10.3719 40.4515 9.07438 38.5217 8.89876C38.4866 8.89463 38.4515 8.89463 38.4164 8.89463H30.2139V8.89256ZM31.968 12.5579C31.968 12.0992 32.0197 11.6508 32.123 11.219H38.3564C38.4288 11.2273 38.4804 11.2355 38.5176 11.2417C38.5238 11.2851 38.5279 11.3471 38.5279 11.4318V18.2314C38.2511 18.2727 37.9721 18.2934 37.6953 18.2934C37.6912 18.2934 37.6891 18.2934 37.687 18.2934C34.5341 18.2893 31.968 15.7169 31.968 12.5579ZM30.4618 30.5186L33.216 30.2955C33.4618 30.2769 33.6932 30.1777 33.8792 30.0186L38.8482 25.7459C39.3275 25.3326 39.8399 25.1198 40.3399 25.1198C40.561 25.1198 40.7821 25.1612 40.9949 25.2459C41.6085 25.4917 42.0445 26.0537 42.1064 26.6777C42.1829 27.4628 41.6664 28.2583 40.6498 28.9174L35.1147 32.5103H30.4618V30.5186ZM25.5507 30.9174L28.1374 30.7087V32.5145H25.1312C24.7407 32.5145 24.6478 32.1901 24.6354 31.9194C24.6292 31.7645 24.6436 30.9917 25.5507 30.9174ZM22.7986 30.1136C22.4494 30.688 22.2862 31.3595 22.311 32.0124C22.3193 32.1818 22.3399 32.345 22.3709 32.5041C22.3709 32.5083 22.3688 32.5103 22.3688 32.5145H16.7407V28.1012L22.8048 30.1054C22.8027 30.1095 22.8007 30.1116 22.7986 30.1136ZM25.1374 34.8368H35.4577C35.6829 34.8368 35.9019 34.7707 36.0899 34.6488L36.6168 34.3079C36.8709 35.4256 37.1581 36.5145 37.4721 37.5434C35.1023 38.2438 31.3399 40.5041 31.3399 47.7955V53.9298C30.5238 54.095 29.5589 54.4752 28.7531 55.3182C27.9019 56.2087 27.4184 57.4132 27.3007 58.9112H24.9556C22.592 52.1033 21.6953 44.8574 25.1374 34.8368ZM27.0527 64.1963C26.623 63.2087 26.2077 62.2252 25.8193 61.2376H37.8874C39.4515 61.2376 40.2449 60.5248 40.2449 59.1219V50.5909H49.4184C50.061 50.5909 50.5796 50.0702 50.5796 49.4277C50.5796 48.7851 50.0589 48.2645 49.4184 48.2645H40.2531C40.2676 47.6033 40.311 47.064 40.4308 46.7459C40.4887 46.5909 40.5403 46.4566 41.1788 46.4566L45.3523 46.4525C47.966 46.4504 49.8358 45.8182 51.0672 44.5207C51.125 44.4607 51.1788 44.3967 51.2325 44.3347H66.9329V47.5289C66.9329 47.9277 66.5961 48.2665 66.1974 48.2665H54.6271C53.9845 48.2665 53.4639 48.7872 53.4639 49.4298C53.4639 50.0723 53.9845 50.593 54.6271 50.593H65.5135C66.4308 52.2975 67.2593 54.4194 67.2097 57.7727C64.9102 54.5785 61.187 52.5248 56.9639 52.5248C53.5713 52.5248 50.3874 53.8554 47.999 56.2727C45.8792 58.4174 44.6085 61.2004 44.3461 64.2045L27.0527 64.1963ZM57.1085 72.6756C53.4742 72.6756 50.4102 70.0579 49.6705 66.5248H64.5465C63.8069 70.0579 60.7428 72.6756 57.1085 72.6756ZM65.8668 64.2004H46.6808C47.2511 58.9463 51.6457 54.845 56.9639 54.845C61.6333 54.845 65.5548 57.9236 66.8544 62.2355C66.8585 62.25 66.8626 62.2624 66.8668 62.2769C67.0507 62.8967 67.1808 63.5393 67.2511 64.2025H65.8668V64.2004ZM77.0135 40.1198C77.0135 41.1612 76.1664 42.0083 75.1271 42.0083H59.7862V36.0062H77.0135V40.1198ZM77.0135 33.6818H59.7862V31.2107H77.0135V33.6818ZM77.0135 28.8864H59.7862V26.5227C59.7862 25.4814 60.6333 24.6343 61.6726 24.6343H75.1271C76.1664 24.6343 77.0135 25.4814 77.0135 26.5227V28.8864Z" fill="#FC2F28"/>
</g>
</svg>
