<svg width="79" height="75" viewBox="0 0 79 75" fill="none" xmlns="http://www.w3.org/2000/svg">
<g clip-path="url(#clip0)">
<path d="M21.0559 47.7166C21.7919 47.289 22.0436 46.3427 21.6189 45.6016C21.1942 44.8624 20.2545 44.6089 19.5185 45.0346C18.7844 45.4623 18.5308 46.4105 18.9555 47.1496C19.3802 47.8888 20.3218 48.1423 21.0559 47.7166Z" fill="#FC2F28"/>
<path d="M14.7566 58.4004L22.4991 71.9031C24.171 74.8192 27.9279 75.9009 30.8989 74.171C33.841 72.4604 34.8499 68.6755 33.1492 65.7129L28.5371 57.669L32.5304 55.347C33.2645 54.9193 33.5182 53.9731 33.0935 53.232L31.0949 49.745C31.3332 49.6986 32.9013 49.389 60.5411 43.9283C63.9579 43.7426 66.0064 39.9789 64.2788 36.9699L59.171 28.0591L62.4359 23.0803C62.7568 22.5907 62.7761 21.9618 62.484 21.4529L59.4092 16.0909C59.1171 15.582 58.5656 15.286 57.9853 15.3208L52.0703 15.6788L46.3974 5.78493C45.5768 4.35107 44.1048 3.48418 42.4618 3.46289C42.4425 3.46289 42.4233 3.46289 42.4041 3.46289C40.8168 3.46289 39.3755 4.25819 38.5204 5.60304L18.4386 31.3642L5.38062 38.9553C0.24584 41.9391 -1.53365 48.5724 1.44114 53.7583C4.16035 58.4972 9.89086 60.3626 14.7566 58.4004ZM30.4876 67.261C31.337 68.7393 30.8336 70.6337 29.3615 71.491C27.8837 72.3521 26.0024 71.8219 25.1607 70.357L17.4739 56.9492L22.7989 53.8531C31.6964 69.3702 30.3435 67.0133 30.4876 67.261ZM26.9998 54.9851L25.4624 52.3032L28.124 50.7551L29.6613 53.4371L26.9998 54.9851ZM57.2223 18.4671L59.3458 22.1727L57.451 25.0617L53.7902 18.6742L57.2223 18.4671ZM41.0916 7.30006C41.5048 6.62087 42.1581 6.54927 42.4233 6.55701C42.6866 6.56088 43.34 6.64215 43.7339 7.33102L61.6154 38.518C62.1976 39.5339 61.4904 40.8091 60.3221 40.8381C60.1126 40.8439 60.0165 40.8806 59.4784 40.9832L40.565 7.99474C40.9628 7.48002 41.0128 7.42971 41.0916 7.30006ZM38.5204 10.6186L56.2922 41.614L29.4711 46.9122L21.3154 32.6896L38.5204 10.6186ZM4.10462 52.2083C3.4301 51.0318 3.07266 49.6967 3.07266 48.346C3.07266 45.5847 4.54661 43.015 6.91799 41.6353L18.8998 34.6692L26.5866 48.0751L14.6048 55.0412C10.9343 57.1756 6.22425 55.9043 4.10462 52.2083Z" fill="#FC2F28"/>
<path d="M16.2957 48.6982C15.871 47.959 14.9313 47.7036 14.1953 48.1312L11.5318 49.6792C10.7977 50.1069 9.85606 49.8514 9.43136 49.1123C9.00667 48.3731 8.06696 48.1177 7.33095 48.5453C6.59493 48.9729 6.34319 49.9211 6.76789 50.6603C8.03429 52.8682 10.8553 53.646 13.0672 52.3612L15.7307 50.8132C16.4667 50.3855 16.7204 49.4393 16.2957 48.6982Z" fill="#FC2F28"/>
<path d="M76.4264 6.771L67.8595 11.5718C67.1177 11.9878 66.8506 12.9302 67.2637 13.6771C67.675 14.4241 68.6108 14.693 69.3545 14.277L77.9196 9.47811C78.6614 9.06208 78.9285 8.11971 78.5153 7.37279C78.1041 6.62393 77.1682 6.3569 76.4264 6.771Z" fill="#FC2F28"/>
<path d="M75.5306 22.8055L69.5906 21.2033C68.77 20.9827 67.9264 21.4722 67.7073 22.2985C67.4882 23.1248 67.9744 23.9723 68.795 24.1948L74.735 25.797C75.5594 26.0196 76.3992 25.5223 76.6182 24.7018C76.8373 23.8756 76.3511 23.0261 75.5306 22.8055Z" fill="#FC2F28"/>
<path d="M60.6026 1.14811L59.0096 7.12931C58.7905 7.95557 59.2767 8.80311 60.0972 9.02564C60.9178 9.24623 61.7595 8.75861 61.9805 7.93041L63.5736 1.94922C63.7946 1.12296 63.3065 0.273478 62.4859 0.0528844C61.6653 -0.16771 60.8217 0.321854 60.6026 1.14811Z" fill="#FC2F28"/>
</g>
<defs>
<clipPath id="clip0">
<rect width="78.7129" height="75" fill="white"/>
</clipPath>
</defs>
</svg>
