<svg width="71" height="29" viewBox="0 0 71 29" fill="none" xmlns="http://www.w3.org/2000/svg">
<path fill-rule="evenodd" clip-rule="evenodd" d="M16.9171 0C15.7317 0 14.5849 0.421142 13.6812 1.18829L2.49069 10.6883C0.138524 12.6851 0.138518 16.3149 2.49068 18.3117L13.6812 27.8117C14.5849 28.5789 15.7317 29 16.9171 29H66.0007C68.7621 29 71.0007 26.7614 71.0007 24V5C71.0007 2.23858 68.7621 0 66.0007 0H16.9171ZM10.0487 17.0506C11.7195 17.0506 13.074 15.6961 13.074 14.0253C13.074 12.3545 11.7195 11 10.0487 11C8.37787 11 7.02341 12.3545 7.02341 14.0253C7.02341 15.6961 8.37787 17.0506 10.0487 17.0506Z" fill="#F9E214"/>
</svg>
