<?xml version="1.0" encoding="UTF-8"?>
<!DOCTYPE svg PUBLIC "-//W3C//DTD SVG 1.1//EN" "http://www.w3.org/Graphics/SVG/1.1/DTD/svg11.dtd"><svg xmlns="http://www.w3.org/2000/svg" xmlns:xlink="http://www.w3.org/1999/xlink">
  <symbol id="icon-arrow-2" viewBox="0 0 18 16">
    <path d="M17.7071 8.70711C18.0976 8.31658 18.0976 7.68342 17.7071 7.29289L11.3431 0.928933C10.9526 0.538409 10.3195 0.538409 9.92893 0.928933C9.53841 1.31946 9.53841 1.95262 9.92893 2.34315L15.5858 8L9.92893 13.6569C9.53841 14.0474 9.53841 14.6805 9.92893 15.0711C10.3195 15.4616 10.9526 15.4616 11.3431 15.0711L17.7071 8.70711ZM-8.74228e-08 9L17 9L17 7L8.74228e-08 7L-8.74228e-08 9Z" />
  </symbol>
  <symbol id="icon-arrow-3" viewBox="0 0 18 14">
    <path d="M17.601 7.60104C17.933 7.2691 17.933 6.73091 17.601 6.39896L12.1917 0.989593C11.8597 0.657648 11.3215 0.657648 10.9896 0.989593C10.6576 1.32154 10.6576 1.85973 10.9896 2.19167L15.7979 7L10.9896 11.8083C10.6576 12.1403 10.6576 12.6785 10.9896 13.0104C11.3215 13.3424 11.8597 13.3424 12.1917 13.0104L17.601 7.60104ZM-7.43094e-08 7.85L17 7.85L17 6.15L7.43094e-08 6.15L-7.43094e-08 7.85Z" />
  </symbol>
  <symbol id="icon-arrow-4" viewBox="0 0 31 16">
    <path d="M30.7071 8.70711C31.0976 8.31659 31.0976 7.68342 30.7071 7.2929L24.3431 0.928934C23.9526 0.53841 23.3195 0.53841 22.9289 0.928934C22.5384 1.31946 22.5384 1.95262 22.9289 2.34315L28.5858 8L22.9289 13.6569C22.5384 14.0474 22.5384 14.6805 22.9289 15.0711C23.3195 15.4616 23.9526 15.4616 24.3431 15.0711L30.7071 8.70711ZM-8.74228e-08 9L30 9L30 7L8.74228e-08 7L-8.74228e-08 9Z" />
  </symbol>
  <symbol id="icon-arrow-5" viewBox="0 0 22 38">
    <path d="M20.7678 20.7678C21.7441 19.7915 21.7441 18.2085 20.7678 17.2322L4.85786 1.32233C3.88155 0.34602 2.29864 0.34602 1.32233 1.32233C0.34602 2.29864 0.34602 3.88155 1.32233 4.85786L15.4645 19L1.32233 33.1421C0.34602 34.1184 0.34602 35.7014 1.32233 36.6777C2.29864 37.654 3.88155 37.654 4.85786 36.6777L20.7678 20.7678ZM18 21.5H19V16.5H18V21.5Z" />
  </symbol>
  <symbol id="icon-arrow-down" viewBox="0 0 14 8">
    <path d="M1 1L7 6.33333L13 1" stroke-width="2" />
  </symbol>
  <symbol id="icon-arrow" viewBox="0 0 22 16">
    <path d="M21.7071 8.7071C22.0976 8.31658 22.0976 7.68342 21.7071 7.29289L15.3431 0.928931C14.9526 0.538406 14.3195 0.538407 13.9289 0.928931C13.5384 1.31946 13.5384 1.95262 13.9289 2.34314L19.5858 8L13.9289 13.6569C13.5384 14.0474 13.5384 14.6805 13.9289 15.0711C14.3195 15.4616 14.9526 15.4616 15.3431 15.0711L21.7071 8.7071ZM8.74228e-08 9L21 9L21 7L-8.74228e-08 7L8.74228e-08 9Z" />
  </symbol>
  <symbol id="icon-cart" viewBox="0 0 30 22">
    <path d="M22.5156 20.9994H6.85439L3.21875 8.96484H26.1512L22.5156 20.9994Z" stroke-width="2" stroke-miterlimit="10" stroke-linejoin="round" />
    <path d="M0 8.96484H29.3738" stroke-width="2" stroke-miterlimit="10" stroke-linejoin="round" />
    <path d="M22.9221 8.96593L18.0234 1" stroke-width="2" stroke-miterlimit="10" stroke-linejoin="round" />
    <path d="M6.44922 8.96593L11.3479 1" stroke-width="2" stroke-miterlimit="10" stroke-linejoin="round" />
  </symbol>
  <symbol id="icon-catalog" viewBox="-469 270 20 20">
    <rect x="-468" y="271" style=" stroke-width:2;" width="6.3" height="6.3" />
    <rect x="-468" y="282.7" style=" stroke-width:2;" width="6.3" height="6.3" />
    <rect x="-456.3" y="271" style=" stroke-width:2;" width="6.3" height="6.3" />
    <rect x="-456.3" y="282.7" style=" stroke-width:2;" width="6.3" height="6.3" />
  </symbol>
  <symbol id="icon-check" viewBox="0 0 14 11">
    <path d="M1 4.5L6.5 8.5L13 1" stroke-width="2.5" />
  </symbol>
  <symbol id="icon-checkbox" viewBox="0 0 16 12">
    <path fill-rule="evenodd" clip-rule="evenodd" d="M11.4616 8.02367C12.2997 7.61095 16 4.45562 16 0C15.7368 0.127219 15.1014 1.13018 14.2088 1.72781C10.9079 3.94231 9.22719 3.14349 5.64185 3.78846C2.9415 4.27515 0.498321 6.02959 0.127684 8.83432C0.0263266 9.60651 -0.13403 11.318 0.20635 12C0.384861 11.9098 0.347041 11.8195 0.504372 11.6879C1.48769 10.8595 2.6465 11.0888 3.90212 11.3018C6.86873 11.8047 9.32249 11.4201 11.8912 9.79438C12.2664 9.55621 14.463 7.86834 14.5477 7.56361C14.2361 7.58876 11.979 8.26035 11.4616 8.02367Z" />
  </symbol>
  <symbol id="icon-close" viewBox="0 0 20 20">

    <path class="st0" d="M12.8,10l5.9-5.9c1-1,1.2-2.5,0.4-3.2s-2.2-0.6-3.2,0.4L10,7.2L4.1,1.2c-1-1-2.5-1.2-3.2-0.4S0.2,3.1,1.2,4.1
	L7.2,10l-5.9,5.9c-1,1-1.2,2.5-0.4,3.2s2.2,0.6,3.2-0.4l5.9-5.9l5.9,5.9c1,1,2.5,1.2,3.2,0.4s0.6-2.2-0.4-3.2L12.8,10z" />
  </symbol>
  <symbol id="icon-compare" viewBox="0 0 25 22">
    <path d="M14.8346 11H10.168V20.9999H14.8346V11Z" stroke-width="1.9" stroke-miterlimit="10" />
    <path d="M5.66667 1H1V20.9997H5.66667V1Z" stroke-width="1.9" stroke-miterlimit="10" />
    <path d="M23.9987 4.33203H19.332V20.9985H23.9987V4.33203Z" stroke-width="1.9" stroke-miterlimit="10" />
  </symbol>
  <symbol id="icon-facebook" viewBox="0 0 40 40">
    <circle cx="20" cy="20" r="19.25" stroke-width="1.5" fill="none" />
    <path stroke="none" d="M22.5395 14.4906H24V12.1056C23.748 12.0731 22.8814 12 21.8722 12C19.7664 12 18.3238 13.2419 18.3238 15.5244V17.625H16V20.2913H18.3238V27H21.1729V20.2919H23.4027L23.7567 17.6256H21.1722V15.7887C21.1729 15.0181 21.3942 14.4906 22.5395 14.4906Z" />
  </symbol>
  <symbol id="icon-heart-circle" viewBox="0 0 30 30">
    <circle cx="15" cy="15" r="14.25" stroke-width="1.5" />
    <path fill="#fff" d="M20.8896 10.2749C20.1623 9.45436 19.1688 9 18.0909 9C17.2857 9 16.5455 9.26448 15.8896 9.79343C15.5584 10.0579 15.2597 10.3834 15 10.7632C14.7403 10.3834 14.4416 10.0579 14.1104 9.79343C13.461 9.26448 12.7208 9 11.9091 9C10.8312 9 9.83117 9.45436 9.11039 10.2749C8.3961 11.0819 8 12.1941 8 13.3944C8 14.6286 8.44156 15.7611 9.38961 16.9546C10.2338 18.0193 11.4545 19.1043 12.8636 20.3589C13.3442 20.7861 13.8896 21.2744 14.461 21.7898C14.6104 21.9254 14.8052 22 15 22C15.2013 22 15.3896 21.9254 15.539 21.7898C16.1039 21.2744 16.6494 20.7861 17.1364 20.3589C18.5455 19.1043 19.7662 18.0193 20.6104 16.9546C21.5584 15.7611 22 14.6286 22 13.3944C22 12.1941 21.6039 11.0819 20.8896 10.2749Z" stroke-width="1.5" stroke-miterlimit="10" stroke-linejoin="round" />
  </symbol>
  <symbol id="icon-heart" viewBox="0 0 25 22">
    <path d="M21.7094 2.9614C20.5409 1.69901 18.9447 1 17.2128 1C15.9191 1 14.7298 1.40689 13.6761 2.22066C13.144 2.62754 12.6641 3.12833 12.2467 3.71257C11.8294 3.12833 11.3495 2.62754 10.8174 2.22066C9.77413 1.40689 8.58477 1 7.28065 1C5.54877 1 3.9421 1.69901 2.78404 2.9614C1.63641 4.20292 1 5.91393 1 7.76056C1 9.65936 1.70944 11.4017 3.23266 13.2379C4.58894 14.8758 6.55034 16.5451 8.81429 18.4752C9.58633 19.1325 10.4627 19.8837 11.3808 20.6766C11.6208 20.8852 11.9338 21 12.2467 21C12.5702 21 12.8727 20.8852 13.1127 20.6766C14.0203 19.8837 14.8967 19.1325 15.6792 18.4752C17.9431 16.5451 19.9045 14.8758 21.2608 13.2379C22.784 11.4017 23.4935 9.65936 23.4935 7.76056C23.4935 5.91393 22.8571 4.20292 21.7094 2.9614Z" stroke-width="2" stroke-miterlimit="10" stroke-linejoin="round" />
  </symbol>
  <symbol id="icon-instagram" viewBox="0 0 40 40">
    <circle cx="20" cy="20" r="19.25" stroke-width="1.5" fill="none" />
    <path stroke="none" d="M29.9513 15.5878C29.9067 14.578 29.7434 13.8835 29.5095 13.2821C29.2681 12.6435 28.897 12.0718 28.4106 11.5964C27.9353 11.1136 27.36 10.7387 26.7289 10.501C26.1239 10.2674 25.4336 10.1041 24.4236 10.0595C23.4065 10.0112 23.0833 10 20.5035 10C17.9234 10 17.6006 10.0112 16.5868 10.0558C15.5772 10.1004 14.8829 10.2637 14.2815 10.4977C13.643 10.7387 13.0714 11.1103 12.5961 11.5968C12.1134 12.0718 11.7389 12.6475 11.5013 13.2784C11.2674 13.8839 11.1041 14.5743 11.0595 15.5841C11.0112 16.6018 11 16.9246 11 19.5052C11 22.0858 11.0112 22.4087 11.0558 23.4222C11.1004 24.4321 11.2637 25.1265 11.4976 25.728C11.7389 26.3666 12.1138 26.9383 12.5961 27.4136C13.0714 27.8964 13.6467 28.2714 14.2778 28.509C14.8829 28.743 15.5735 28.9063 16.5831 28.9505C17.5965 28.9952 17.9197 29.0063 20.4998 29.0063C23.0796 29.0063 23.4028 28.9952 24.4162 28.9505C25.4258 28.9063 26.1201 28.7426 26.7215 28.509C27.9985 28.0151 29.0082 27.0052 29.5021 25.728C29.736 25.1228 29.8992 24.4321 29.9439 23.4222C29.9885 22.4087 29.9996 22.0854 29.9996 19.5052C29.9996 16.9246 29.9959 16.6018 29.9513 15.5878ZM28.2399 23.3482C28.199 24.2766 28.0432 24.7776 27.913 25.112C27.5935 25.94 26.9368 26.5972 26.1086 26.9167C25.7747 27.0465 25.2696 27.2024 24.3451 27.2433C23.3429 27.2879 23.042 27.2991 20.5065 27.2991C17.971 27.2991 17.6664 27.2879 16.6679 27.2433C15.7397 27.2024 15.2388 27.0465 14.9044 26.9167C14.4924 26.7646 14.1175 26.5232 13.8133 26.2074C13.498 25.8991 13.2562 25.5279 13.1041 25.1157C12.9743 24.7817 12.8185 24.2766 12.7776 23.3519C12.733 22.3495 12.7218 22.0486 12.7218 19.5127C12.7218 16.9767 12.733 16.6721 12.7776 15.6734C12.8185 14.745 12.9743 14.244 13.1041 13.91C13.2562 13.4978 13.498 13.1229 13.817 12.8183C14.125 12.5029 14.4961 12.2615 14.9081 12.109C15.2421 11.9792 15.7471 11.8233 16.6716 11.782C17.6739 11.7374 17.9747 11.7262 20.5102 11.7262C23.0495 11.7262 23.3503 11.7374 24.3488 11.782C25.2771 11.8229 25.778 11.9788 26.1123 12.109C26.5244 12.2611 26.8992 12.5025 27.2034 12.8183C27.5192 13.1266 27.7605 13.4978 27.9126 13.91C28.0424 14.244 28.1982 14.7487 28.2395 15.6734C28.2841 16.6758 28.2953 16.9767 28.2953 19.5127C28.2957 22.0486 28.2845 22.3454 28.2399 23.3482Z" stroke-width="0.5" />
    <path stroke="none" d="M20.5028 14.6211C17.8078 14.6211 15.6211 16.8078 15.6211 19.5037C15.6211 22.1992 17.8078 24.3863 20.5028 24.3863C23.1979 24.3863 25.3846 22.1992 25.3846 19.5037C25.3842 16.8078 23.1979 14.6211 20.5028 14.6211ZM20.5028 22.6709C18.7542 22.6709 17.3362 21.2526 17.3362 19.5037C17.3362 17.7548 18.7546 16.3365 20.5028 16.3365C22.2514 16.3365 23.6694 17.7548 23.6694 19.5037C23.6694 21.2526 22.2511 22.6709 20.5028 22.6709Z" stroke-width="0.5" />
    <path stroke="none" d="M26.7125 14.4285C26.7125 15.0582 26.2024 15.568 25.5729 15.568C24.9437 15.568 24.4336 15.0578 24.4336 14.4285C24.4336 13.7989 24.9437 13.2891 25.5729 13.2891C26.2024 13.2891 26.7125 13.7989 26.7125 14.4285Z" stroke-width="0.5" />
  </symbol>
  <symbol id="icon-leaf" viewBox="0 0 64 49">
    <path fill-rule="evenodd" clip-rule="evenodd" d="M45.8464 32.7633C49.1987 31.078 64 18.1938 64 0C62.9471 0.519477 60.4056 4.61489 56.8354 7.05523C43.6316 16.0978 36.9087 12.8359 22.5674 15.4696C11.766 17.4569 1.99328 24.6208 0.510737 36.0735C0.105306 39.2266 -0.536122 46.2154 0.8254 49C1.53944 48.6315 1.38816 48.2631 2.01749 47.7255C5.95077 44.3428 10.586 45.2791 15.6085 46.1489C27.4749 48.2027 37.29 46.6321 47.5649 39.9937C49.0656 39.0212 57.852 32.1291 58.1908 30.8847C56.9443 30.9874 47.9159 33.7298 45.8464 32.7633Z" />
  </symbol>
  <symbol id="icon-linkedin" viewBox="0 0 40 40">
    <circle cx="20" cy="20" r="19.25" stroke-width="1.5" fill="none" />
    <path stroke="none" d="M16.4923 15.75H13V25.2487H16.4923V15.75Z" />
    <path stroke="none" d="M14.7466 11C13.6518 11 12.7966 11.9577 13.0425 13.0333C13.1853 13.6591 13.7233 14.1629 14.3831 14.2889C15.5094 14.5048 16.4928 13.6931 16.4928 12.6614C16.4928 11.7457 15.7132 11 14.7466 11Z" />
    <path stroke="none" d="M27.9774 18.667C27.742 16.8776 26.8007 15.75 24.2581 15.75C22.4531 15.75 21.7345 16.0179 21.3205 16.7676V15.75H18.4922V25.2487H21.4025V20.2744C21.4025 19.0329 21.6504 18.0952 23.2621 18.0952C24.8528 18.0952 24.9789 19.2488 24.9789 20.3544V25.2467H27.9753C27.9774 25.2467 28.032 19.0848 27.9774 18.667Z" />
  </symbol>
  <symbol id="icon-menu" viewBox="0 0 20 20">
    <rect class="cls-1" width="20" height="4" rx="2" ry="2" />
    <rect class="cls-1" y="8" width="20" height="4" rx="2" ry="2" />
    <rect class="cls-1" y="16" width="20" height="4" rx="2" ry="2" />
  </symbol>
  <symbol id="icon-payment-card" viewBox="0 0 85 85">
    <path d="M69.565 56.7285H61.0469V59.574H69.565V56.7285Z" />
    <path d="M58.2056 56.7285H49.6875V59.574H58.2056V56.7285Z" />
    <path d="M46.8501 56.7285H38.332V59.574H46.8501V56.7285Z" />
    <path d="M85 32.4528C85.0035 31.3128 84.551 30.2173 83.7418 29.4152L55.6516 1.25913C54.853 0.451726 53.767 -0.00177322 52.633 5.211e-06H52.6206C51.4937 5.211e-06 50.4165 0.453504 49.6268 1.25913L19.8277 31.1189H4.25905C1.9077 31.1189 0 33.0308 0 35.3872V75.224C0 77.5804 1.9077 79.4922 4.25905 79.4922H25.2934L29.5294 83.7427C30.328 84.5501 31.414 85.0036 32.548 85.0018H32.5587C33.6855 85.0018 34.7645 84.5483 35.5542 83.7427L39.7991 79.4922H72.4039C74.7552 79.4922 76.6629 77.5804 76.6629 75.224V42.5489L83.7365 35.4601C84.5421 34.6687 84.9982 33.5856 85 32.4528ZM37.8825 31.1189L59.6551 9.29941L65.6834 15.3407L49.9391 31.1189H37.8825ZM51.6374 3.2652C52.1769 2.71033 53.0642 2.69966 53.6161 3.24208C53.625 3.24919 53.6321 3.25809 53.6392 3.2652L57.6462 7.28801L33.8648 31.1189H23.84L51.6374 3.2652ZM4.25905 33.9644H72.4039C73.1882 33.9644 73.8235 34.6011 73.8235 35.3872V41.0782H2.83937V35.3872C2.83937 34.6011 3.47468 33.9644 4.25905 33.9644ZM73.8235 52.4601H2.83937V43.9236H73.8235V52.4601ZM33.5436 81.7348C33.2845 82.0069 32.926 82.1599 32.5498 82.1616C32.17 82.1616 31.8045 82.0069 31.5383 81.7348L29.3076 79.4904H35.7831L33.5436 81.7348ZM72.4039 76.6467H4.25905C3.47468 76.6467 2.83937 76.01 2.83937 75.224V55.3056H73.8235V75.224C73.8235 76.0083 73.1882 76.6467 72.4039 76.6467ZM81.7347 33.4416L76.6629 38.5243V35.3854C76.6629 33.029 74.7552 31.1172 72.4039 31.1172H53.948L67.6852 17.3504L81.7294 31.4248C82.0027 31.6934 82.1553 32.0597 82.1553 32.4421C82.1553 32.8191 82.0045 33.1801 81.7347 33.4416Z" />
    <path d="M24.1351 69.5331C24.1351 66.3906 21.5921 63.8422 18.4564 63.8422C18.1742 63.8386 17.8938 63.8617 17.6152 63.9133L17.5779 63.924C17.5637 63.924 17.5495 63.924 17.5371 63.924C16.2363 64.1409 15.0544 64.8096 14.1973 65.8126C12.1459 63.4349 8.55939 63.1752 6.18675 65.2311C3.8141 67.287 3.55501 70.8812 5.60645 73.2589C7.65789 75.6367 11.2444 75.8963 13.617 73.8405C13.8246 73.6609 14.0181 73.467 14.1973 73.2589C16.0748 75.4499 19.3011 75.8661 21.6702 74.2228C23.1999 73.1504 24.1191 71.4023 24.1351 69.5331ZM9.93826 72.3786C8.36951 72.3786 7.09889 71.1053 7.09889 69.5331C7.09889 67.961 8.36951 66.6876 9.93826 66.6876C11.507 66.6876 12.7776 67.961 12.7776 69.5331C12.7776 71.1053 11.507 72.3786 9.93826 72.3786ZM18.4564 72.3786C16.8876 72.3519 15.6383 71.0572 15.6649 69.4851C15.688 68.089 16.719 66.9171 18.0961 66.7179C18.215 66.6947 18.3357 66.6859 18.4546 66.6876C20.0233 66.6876 21.294 67.961 21.294 69.5331C21.2922 70.136 21.097 70.7211 20.7367 71.2013C20.6853 71.2706 20.6462 71.3436 20.5877 71.4165C20.577 71.4271 20.5628 71.4343 20.5522 71.4467C20.0162 72.0389 19.2549 72.3786 18.4564 72.3786Z" />
  </symbol>
  <symbol id="icon-payment-cash" viewBox="0 0 68 85">
    <path d="M2.83333 22.6667H17V33.4139L11.7477 38.6661C11.4821 38.9318 11.3333 39.2912 11.3333 39.6684V58.0851C11.3333 58.248 11.3617 58.4092 11.4166 58.5615L18.4167 78.1593V83.5833C18.4167 84.366 19.0506 85 19.8333 85H36.8333C37.616 85 38.25 84.366 38.25 83.5833V62.3333C38.25 62.1421 38.211 61.9508 38.1349 61.7755L34.7314 53.8333H49.5833C50.366 53.8333 51 53.1994 51 52.4167V22.6667H65.1667V11.3333H68V0H0V11.3333H2.83333V22.6667ZM35.4167 82.1667H21.25V79.3333H35.4167V82.1667ZM35.4167 76.5H20.825L14.1667 57.839V40.2528L17 37.4195V52.4167C17 53.1994 17.634 53.8333 18.4167 53.8333H24.0833V59.5H26.9167V45.3333C26.9167 44.5506 27.5506 43.9167 28.3333 43.9167H29.75C30.5327 43.9167 31.1667 44.5506 31.1667 45.3333V52.4167C31.1667 52.6079 31.2056 52.7992 31.2818 52.9745L35.4167 62.6238V76.5ZM48.1667 51H34V45.3333C34 42.987 32.0964 41.0833 29.75 41.0833H28.3333C27.285 41.0869 26.2739 41.4818 25.5 42.1883V39.6667H22.6667V48.1667H24.0833V51H19.8333V17H22.6667V36.8333H25.5V23.0545C27.6427 25.5089 30.7417 26.9167 34 26.9167C37.2583 26.9167 40.3573 25.5089 42.5 23.0545V36.8333H45.3333V17H48.1667V51ZM25.6169 17H42.3814C41.6925 21.0924 38.1491 24.0904 33.9982 24.0904C29.8492 24.0904 26.3057 21.0924 25.6169 17ZM62.3333 19.8333H51V17H53.8333V14.1667H14.1667V17H17V19.8333H5.66667V11.3333H62.3333V19.8333ZM2.83333 2.83333H65.1667V8.5H2.83333V2.83333Z" />
    <path d="M11.3333 14.166H8.5V16.9993H11.3333V14.166Z" />
    <path d="M59.5013 14.166H56.668V16.9993H59.5013V14.166Z" />
    <path d="M42.4987 45.3327H36.832V48.166H45.332V39.666H42.4987V45.3327Z" />
    <path d="M38.25 34C38.25 31.6536 36.3464 29.75 34 29.75C31.6536 29.75 29.75 31.6536 29.75 34C29.75 36.3464 31.6536 38.25 34 38.25C36.3464 38.25 38.25 36.3464 38.25 34ZM34 35.4167C33.2173 35.4167 32.5833 34.7827 32.5833 34C32.5833 33.2173 33.2173 32.5833 34 32.5833C34.7827 32.5833 35.4167 33.2173 35.4167 34C35.4167 34.7827 34.7827 35.4167 34 35.4167Z" />
  </symbol>
  <symbol id="icon-payment-credit" viewBox="0 0 85 85">
    <path d="M83.5879 51.0932H82.1752V46.855C82.1752 46.0756 81.5418 45.4422 80.7625 45.4422H79.3497V41.204C79.3497 40.4246 78.7163 39.7913 77.937 39.7913H29.6494C29.8143 39.3368 29.899 38.8612 29.9037 38.3785C29.9014 37.3331 29.5082 36.3253 28.8018 35.553C29.5082 34.7807 29.9014 33.773 29.9037 32.7276C29.8967 30.3895 28.0036 28.4964 25.6655 28.4893H24.6766C30.2381 24.6043 32.635 17.5571 30.6007 11.0843C28.5616 4.61163 22.5622 0.210938 15.7763 0.210938C8.99044 0.210938 2.98864 4.61163 0.951935 11.0843C-1.08477 17.5571 1.31454 24.6043 6.87603 28.4893H5.88712C3.54903 28.4964 1.65595 30.3895 1.64889 32.7276C1.65124 33.773 2.04446 34.7807 2.75083 35.553C1.28158 37.1494 1.28158 39.6076 2.75083 41.204C2.04446 41.9763 1.65124 42.9841 1.64889 44.0295C1.65595 46.3676 3.54903 48.2607 5.88712 48.2677H8.7126V77.9353C8.7126 78.7147 9.34598 79.348 10.1253 79.348H14.3636V80.7608C14.3636 81.5402 14.9969 82.1735 15.7763 82.1735H20.0145V83.5863C20.0145 84.3656 20.6479 84.999 21.4273 84.999H83.5879C84.3673 84.999 85.0007 84.3656 85.0007 83.5863V52.5059C85.0007 51.7266 84.3673 51.0932 83.5879 51.0932ZM29.6494 42.6167H76.5242V45.4422H29.6494C29.9885 44.531 29.9885 43.528 29.6494 42.6167ZM3.06163 15.7746C3.06163 10.6323 6.16024 5.99612 10.9118 4.0277C15.6633 2.05928 21.1306 3.14709 24.7684 6.7849C28.4062 10.4227 29.4917 15.89 27.5256 20.6415C25.5548 25.3907 20.9187 28.4893 15.7763 28.4893C8.75734 28.4776 3.0734 22.7913 3.06163 15.7746ZM5.88712 31.3148H25.6655C26.4449 31.3148 27.0782 31.9482 27.0782 32.7276C27.0782 33.5069 26.4449 34.1403 25.6655 34.1403H5.88712C5.10775 34.1403 4.47437 33.5069 4.47437 32.7276C4.47437 31.9482 5.10775 31.3148 5.88712 31.3148ZM5.88712 36.9658H25.6655C26.4449 36.9658 27.0782 37.5992 27.0782 38.3785C27.0782 39.1579 26.4449 39.7913 25.6655 39.7913H5.88712C5.10775 39.7913 4.47437 39.1579 4.47437 38.3785C4.47437 37.5992 5.10775 36.9658 5.88712 36.9658ZM14.3636 76.5226H11.5381V48.2677H14.3636V76.5226ZM5.88712 45.4422C5.10775 45.4422 4.47437 44.8089 4.47437 44.0295C4.47437 43.2501 5.10775 42.6167 5.88712 42.6167H25.6655C26.4449 42.6167 27.0782 43.2501 27.0782 44.0295C27.0782 44.8089 26.4449 45.4422 25.6655 45.4422H5.88712ZM20.0145 52.5059V79.348H17.1891V48.2677H79.3497V51.0932H21.4273C20.6479 51.0932 20.0145 51.7266 20.0145 52.5059ZM82.1752 82.1735H22.84V53.9187H82.1752V82.1735Z" />
    <path d="M28.4935 64.9797C29.699 64.5512 30.6479 63.6023 31.0764 62.3968H34.1444V59.5713H29.9062C29.1268 59.5713 28.4935 60.2047 28.4935 60.984C28.4935 61.7634 27.8601 62.3968 27.0807 62.3968C26.3013 62.3968 25.668 63.0301 25.668 63.8095V68.0477H28.4935V64.9797Z" />
    <path d="M76.5221 64.9797V68.0477H79.3476V63.8095C79.3476 63.0301 78.7142 62.3968 77.9348 62.3968C77.1554 62.3968 76.5221 61.7634 76.5221 60.984C76.5221 60.2047 75.8887 59.5713 75.1093 59.5713H70.8711V62.3968H73.9391C74.3676 63.6023 75.3165 64.5512 76.5221 64.9797Z" />
    <path d="M27.0807 76.523C27.8601 76.523 28.4935 77.1564 28.4935 77.9358C28.4935 78.7151 29.1268 79.3485 29.9062 79.3485H34.1444V76.523H31.0764C30.6455 75.3175 29.699 74.3686 28.4935 73.9401V70.8721H25.668V75.1103C25.668 75.8897 26.3013 76.523 27.0807 76.523Z" />
    <path d="M76.5221 77.9358C76.5221 77.1564 77.1554 76.523 77.9348 76.523C78.7142 76.523 79.3476 75.8897 79.3476 75.1103V70.8721H76.5221V73.9401C75.3165 74.3686 74.3676 75.3175 73.9391 76.523H70.8711V79.3485H75.1093C75.8887 79.3485 76.5221 78.7151 76.5221 77.9358Z" />
    <path d="M52.509 79.3481C57.0792 79.3481 61.2021 76.5933 62.9515 72.3715C64.701 68.1498 63.7332 63.2876 60.5004 60.0548C57.2676 56.822 52.4054 55.8542 48.1836 57.6037C43.9619 59.3531 41.207 63.476 41.207 68.0462C41.2141 74.2858 46.2694 79.3411 52.509 79.3481ZM52.509 59.5697C55.9372 59.5697 59.0288 61.6347 60.3403 64.8016C61.6518 67.9685 60.9266 71.6157 58.5037 74.0386C56.0785 76.4614 52.4336 77.189 49.2667 75.8751C46.0975 74.566 44.0325 71.4744 44.0325 68.0462C44.0372 63.3677 47.8281 59.5744 52.509 59.5697Z" />
    <path d="M80.7611 0.234375H38.3789C36.0384 0.234375 34.1406 2.13216 34.1406 4.4726V29.902C34.1406 32.2424 36.0384 34.1402 38.3789 34.1402H80.7611C83.1016 34.1402 84.9993 32.2424 84.9993 29.902V4.4726C84.9993 2.13216 83.1016 0.234375 80.7611 0.234375ZM38.3789 3.05986H80.7611C81.5405 3.05986 82.1739 3.69324 82.1739 4.4726V8.71083H36.9661V4.4726C36.9661 3.69324 37.5995 3.05986 38.3789 3.05986ZM82.1739 11.5363V14.3618H36.9661V11.5363H82.1739ZM80.7611 31.3147H38.3789C37.5995 31.3147 36.9661 30.6813 36.9661 29.902V17.1873H82.1739V29.902C82.1739 30.6813 81.5405 31.3147 80.7611 31.3147Z" />
    <path d="M15.7773 11.5371C16.5566 11.5371 17.19 12.1704 17.19 12.9498H20.0155C20.0084 11.1603 18.8783 9.56863 17.19 8.97293V7.29883H14.3645V8.97293C12.4197 9.65811 11.2542 11.6454 11.6026 13.6774C11.9511 15.707 13.7147 17.1927 15.7773 17.188C16.3494 17.188 16.8627 17.5318 17.0817 18.0592C17.3007 18.5866 17.1783 19.1941 16.7756 19.5991C16.373 20.0041 15.7632 20.1242 15.2357 19.9052C14.7083 19.6862 14.3645 19.1729 14.3645 18.6008H11.5391C11.5461 20.3902 12.6763 21.9819 14.3645 22.5776V24.2517H17.19V22.5776C19.1349 21.8925 20.3028 19.9052 19.9519 17.8732C19.6035 15.8436 17.8399 14.3578 15.7773 14.3625C14.9979 14.3625 14.3645 13.7292 14.3645 12.9498C14.3645 12.1704 14.9979 11.5371 15.7773 11.5371Z" />
  </symbol>
  <symbol id="icon-payment-installment" viewBox="0 0 85 85">
    <path d="M80.75 17.017H63.325C61.3133 7.11461 52.6056 0 42.5 0C32.3944 0 23.6867 7.11461 21.675 17.017H4.25C1.90542 17.0241 0.00708333 18.9219 0 21.2659V66.5879C0.00708333 68.9319 1.90542 70.8298 4.25 70.8369H32.3283L31.3792 76.5021H26.9167C26.4704 76.5045 26.0525 76.7146 25.7833 77.0686L21.5333 82.7339C21.2122 83.1635 21.1603 83.7371 21.3987 84.2187C21.6372 84.6978 22.1283 85.0024 22.6667 85.0024H62.3333C62.8693 85.0024 63.3604 84.6978 63.6012 84.2187C63.8421 83.7395 63.7901 83.1659 63.4667 82.7339L59.2167 77.0686C58.9475 76.7146 58.5296 76.5045 58.0833 76.5021H53.6208L52.6717 70.8369H80.75C83.0946 70.8298 84.9929 68.9319 85 66.5879V21.2659C84.9929 18.9219 83.0946 17.0241 80.75 17.017ZM60.8458 19.8496H58.0125C57.8449 18.0839 57.3797 16.3608 56.6383 14.7509L59.0892 13.3204C60.0714 15.3694 60.6664 17.5835 60.8458 19.8496ZM56.6383 27.781C57.3797 26.1711 57.8449 24.4479 58.0125 22.6822H60.8458C60.6688 24.9483 60.0714 27.1625 59.0892 29.2114L56.6383 27.781ZM57.6867 31.6617C56.3951 33.5336 54.7707 35.1576 52.8983 36.4488L51.4817 33.9844C52.9243 32.9529 54.1875 31.6876 55.2217 30.2454L57.6867 31.6617ZM52.8983 6.08306C54.7707 7.37427 56.3951 8.99831 57.6867 10.8702L55.2217 12.2865C54.1899 10.8442 52.9243 9.58135 51.4817 8.54745L52.8983 6.08306ZM43.9167 2.92469C46.1833 3.10172 48.3981 3.69894 50.4475 4.68091L49.0167 7.13113C47.4064 6.38993 45.6804 5.92491 43.9167 5.75731V2.92469ZM55.25 21.2659C55.25 26.4213 52.1428 31.0692 47.3781 33.0426C42.6133 35.0136 37.1308 33.9254 33.4829 30.2784C29.8374 26.6314 28.7465 21.1503 30.7181 16.3867C32.6919 11.6232 37.341 8.51676 42.4976 8.51676C49.5361 8.53092 55.2382 14.2316 55.25 21.2659ZM50.4475 37.851C48.3981 38.8329 46.1833 39.4278 43.9167 39.6072V36.7746C45.6828 36.607 47.4064 36.1419 49.0167 35.4007L50.4475 37.851ZM41.0833 36.7746V39.6072C38.8167 39.4301 36.6019 38.8329 34.5525 37.851L35.9833 35.4007C37.5936 36.1419 39.3172 36.607 41.0833 36.7746ZM33.5183 33.9844L32.1017 36.4488C30.2293 35.1576 28.6049 33.5336 27.3133 31.6617L29.7783 30.2454C30.8125 31.6876 32.0757 32.9505 33.5183 33.9844ZM41.0833 2.92469V5.75731C39.3172 5.92491 37.5936 6.38993 35.9833 7.13113L34.5525 4.68091C36.6019 3.69894 38.8167 3.10172 41.0833 2.92469ZM32.1017 6.08306L33.5183 8.54745C32.0757 9.58135 30.8125 10.8442 29.7783 12.2865L27.3133 10.8702C28.6049 8.99831 30.2293 7.37427 32.1017 6.08306ZM25.9108 13.3204L28.3617 14.7509C27.6203 16.3608 27.1551 18.0863 26.9875 19.8496H24.1542C24.3312 17.5835 24.9286 15.3694 25.9108 13.3204ZM26.9875 22.6822C27.1551 24.4479 27.6203 26.1711 28.3617 27.781L25.9108 29.2114C24.9286 27.1625 24.3336 24.9483 24.1542 22.6822H26.9875ZM57.375 79.3347L59.5 82.1674H25.5L27.625 79.3347H57.375ZM34.255 76.5021L35.2042 70.8369H49.7958L50.745 76.5021H34.255ZM82.1667 66.5879C82.1667 67.3693 81.5315 68.0042 80.75 68.0042H4.25C3.46847 68.0042 2.83333 67.3693 2.83333 66.5879V62.339H82.1667V66.5879ZM82.1667 59.5064H2.83333V21.2659C2.83333 20.4846 3.46847 19.8496 4.25 19.8496H21.3208C21.2925 20.317 21.25 20.7844 21.25 21.2659C21.25 33.0001 30.7629 42.5106 42.5 42.5106C54.2371 42.5106 63.75 33.0001 63.75 21.2659C63.75 20.7844 63.7075 20.317 63.6792 19.8496H80.75C81.5315 19.8496 82.1667 20.4846 82.1667 21.2659V59.5064Z" />
    <path d="M41.0833 31.1799H43.9167V28.3473C45.4821 28.3473 46.75 27.0797 46.75 25.5147V22.6821C46.75 21.117 45.4821 19.8494 43.9167 19.8494H41.0833V17.0168H46.75V14.1842H43.9167V11.3516H41.0833V14.1842C39.5179 14.1842 38.25 15.4518 38.25 17.0168V19.8494C38.25 21.4145 39.5179 22.6821 41.0833 22.6821H43.9167V25.5147H38.25V28.3473H41.0833V31.1799Z" />
    <path d="M25.5013 39.6777H22.668V56.6735H25.5013V39.6777Z" />
    <path d="M14.1654 42.5098H11.332V56.6729H14.1654V42.5098Z" />
    <path d="M19.8333 45.3438H17V56.6743H19.8333V45.3438Z" />
    <path d="M8.50131 45.3438H5.66797V56.6742H8.50131V45.3438Z" />
    <path d="M29.7487 56.6742H55.2487C56.0302 56.6742 56.6654 56.0393 56.6654 55.2579V46.7601C56.6654 45.9787 56.0302 45.3438 55.2487 45.3438H29.7487C28.9672 45.3438 28.332 45.9787 28.332 46.7601V55.2579C28.332 56.0393 28.9672 56.6742 29.7487 56.6742ZM31.1654 48.1764H53.832V53.8416H31.1654V48.1764Z" />
    <path d="M60.9167 56.6735H77.9167C78.6982 56.6735 79.3333 56.0385 79.3333 55.2572V41.094C79.3333 40.3127 78.6982 39.6777 77.9167 39.6777H60.9167C60.1351 39.6777 59.5 40.3127 59.5 41.094V55.2572C59.5 56.0385 60.1351 56.6735 60.9167 56.6735ZM62.3333 42.5104H76.5V53.8409H62.3333V42.5104Z" />
    <path d="M79.3333 22.6816H68V25.5143H79.3333V22.6816Z" />
    <path d="M79.3333 34.0137H68V36.8463H79.3333V34.0137Z" />
    <path d="M70.8333 28.3477H68V31.1803H70.8333V28.3477Z" />
    <path d="M79.3346 28.3477H73.668V31.1803H79.3346V28.3477Z" />
    <path d="M17.0013 22.6816H5.66797V25.5143H17.0013V22.6816Z" />
    <path d="M17.0013 34.0137H5.66797V36.8463H17.0013V34.0137Z" />
    <path d="M17.0013 28.3477H14.168V31.1803H17.0013V28.3477Z" />
    <path d="M11.3346 28.3477H5.66797V31.1803H11.3346V28.3477Z" />
    <path d="M63.7513 8.51936H66.5846V5.68673H69.4179V2.85411H66.5846V0.0214844H63.7513V2.85411H60.918V5.68673H63.7513V8.51936Z" />
    <path d="M75.0833 14.1834H77.9167V11.3508H80.75V8.51817H77.9167V5.68555H75.0833V8.51817H72.25V11.3508H75.0833V14.1834Z" />
    <path d="M18.4154 8.51936H21.2487V5.68673H24.082V2.85411H21.2487V0.0214844H18.4154V2.85411H15.582V5.68673H18.4154V8.51936Z" />
    <path d="M7.08333 14.1834H9.91666V11.3508H12.75V8.51817H9.91666V5.68555H7.08333V8.51817H4.25V11.3508H7.08333V14.1834Z" />
  </symbol>
  <symbol id="icon-payment-online" viewBox="0 0 94 85">
    <path d="M5.90729 5.86631C5.0959 5.86631 4.43359 5.21134 4.43359 4.39995C4.43359 3.58857 5.08124 2.93359 5.89018 2.93359H5.90729C6.71623 2.93359 7.37365 3.58857 7.37365 4.39995C7.37365 5.21134 6.71623 5.86631 5.90729 5.86631Z" />
    <path d="M10.3096 5.86631C9.49824 5.86631 8.83594 5.21134 8.83594 4.39995C8.83594 3.58857 9.48358 2.93359 10.2925 2.93359H10.3096C11.1186 2.93359 11.776 3.58857 11.776 4.39995C11.776 5.21134 11.1186 5.86631 10.3096 5.86631Z" />
    <path d="M14.7081 5.86631C13.8967 5.86631 13.2344 5.21134 13.2344 4.39995C13.2344 3.58857 13.882 2.93359 14.691 2.93359H14.7081C15.517 2.93359 16.1744 3.58857 16.1744 4.39995C16.1744 5.21134 15.517 5.86631 14.7081 5.86631Z" />
    <path d="M92.3924 84.9998H1.47808C0.666693 84.9998 0.0117188 84.3448 0.0117188 83.5334V7.33159C0.0117188 6.52021 0.666693 5.86523 1.47808 5.86523H92.3924C93.2038 5.86523 93.8588 6.52021 93.8588 7.33159V83.5334C93.8588 84.3424 93.2038 84.9998 92.3924 84.9998ZM2.94444 82.0671H90.926V8.79795H2.94444V82.0671Z" />
    <path d="M1.46636 5.86544C0.654974 5.86544 0 5.21047 0 4.39908C0 1.9747 1.97225 0 4.39908 0C5.21047 0 5.86544 0.654974 5.86544 1.46636C5.86544 2.27775 5.21047 2.93272 4.39908 2.93272C3.59014 2.93272 2.93272 3.59014 2.93272 4.39908C2.93272 5.20802 2.27775 5.86544 1.46636 5.86544Z" />
    <path d="M1.46636 8.79903C0.654974 8.79903 0 8.14406 0 7.33267V4.39995C0 3.58857 0.654974 2.93359 1.46636 2.93359C2.27775 2.93359 2.93272 3.58857 2.93272 4.39995V7.33267C2.93272 8.14162 2.27775 8.79903 1.46636 8.79903Z" />
    <path d="M92.3795 5.86544C91.5682 5.86544 90.9132 5.21047 90.9132 4.39908C90.9132 3.59014 90.2558 2.93272 89.4468 2.93272C88.6354 2.93272 87.9805 2.27775 87.9805 1.46636C87.9805 0.654974 88.6354 0 89.4468 0C91.8712 0 93.8459 1.9747 93.8459 4.39908C93.8459 5.20802 93.1909 5.86544 92.3795 5.86544Z" />
    <path d="M92.3804 8.79903C91.569 8.79903 90.9141 8.14406 90.9141 7.33267V4.39995C90.9141 3.58857 91.569 2.93359 92.3804 2.93359C93.1918 2.93359 93.8468 3.58857 93.8468 4.39995V7.33267C93.8468 8.14162 93.1918 8.79903 92.3804 8.79903Z" />
    <path d="M89.4488 2.93272H4.39995C3.58857 2.93272 2.93359 2.27775 2.93359 1.46636C2.93359 0.654974 3.58857 0 4.39995 0H89.4488C90.2602 0 90.9152 0.654974 90.9152 1.46636C90.9152 2.27775 90.2602 2.93272 89.4488 2.93272Z" />
    <path d="M27.8889 74.7628H8.83355C8.02216 74.7628 7.36719 74.1078 7.36719 73.2964C7.36719 72.4851 8.02216 71.8301 8.83355 71.8301H27.8865C28.6978 71.8301 29.3528 72.4851 29.3528 73.2964C29.3528 74.1054 28.6978 74.7628 27.8889 74.7628Z" />
    <path d="M85.0739 74.7628H66.021C65.2097 74.7628 64.5547 74.1078 64.5547 73.2964C64.5547 72.4851 65.2097 71.8301 66.021 71.8301H85.0739C85.8853 71.8301 86.5403 72.4851 86.5403 73.2964C86.5403 74.1054 85.8829 74.7628 85.0739 74.7628Z" />
    <path d="M56.4607 74.7628H37.4078C36.5964 74.7628 35.9414 74.1078 35.9414 73.2964C35.9414 72.4851 36.5964 71.8301 37.4078 71.8301H56.4607C57.2721 71.8301 57.927 72.4851 57.927 73.2964C57.927 74.1054 57.2721 74.7628 56.4607 74.7628Z" />
    <path d="M52.0898 79.1612H41.7789C40.9675 79.1612 40.3125 78.5063 40.3125 77.6949C40.3125 76.8835 40.9675 76.2285 41.7789 76.2285H52.0898C52.9012 76.2285 53.5562 76.8835 53.5562 77.6949C53.5562 78.5038 52.9012 79.1612 52.0898 79.1612Z" />
    <path d="M80.686 79.1612H70.4117C69.6003 79.1612 68.9453 78.5063 68.9453 77.6949C68.9453 76.8835 69.6003 76.2285 70.4117 76.2285H80.686C81.4974 76.2285 82.1523 76.8835 82.1523 77.6949C82.1523 78.5038 81.4974 79.1612 80.686 79.1612Z" />
    <path d="M23.4965 79.1612H13.232C12.4206 79.1612 11.7656 78.5063 11.7656 77.6949C11.7656 76.8835 12.4206 76.2285 13.232 76.2285H23.4941C24.3054 76.2285 24.9604 76.8835 24.9604 77.6949C24.9629 78.5038 24.3079 79.1612 23.4965 79.1612Z" />
    <path d="M86.5482 55.689H7.3648C6.55341 55.689 5.89844 55.034 5.89844 54.2226V13.2183C5.89844 12.4069 6.55341 11.752 7.3648 11.752H86.5482C87.3596 11.752 88.0146 12.4069 88.0146 13.2183V54.2226C88.0146 55.034 87.3596 55.689 86.5482 55.689ZM8.83116 52.7563H85.0819V14.6847H8.83116V52.7563Z" />
    <path d="M79.1989 29.3351H48.4078C47.5964 29.3351 46.9414 28.6801 46.9414 27.8687C46.9414 27.0573 47.5964 26.4023 48.4078 26.4023H79.1989C80.0103 26.4023 80.6652 27.0573 80.6652 27.8687C80.6652 28.6801 80.0103 29.3351 79.1989 29.3351Z" />
    <path d="M79.1989 24.9347H48.4078C47.5964 24.9347 46.9414 24.2797 46.9414 23.4683C46.9414 22.6569 47.5964 22.002 48.4078 22.002H79.1989C80.0103 22.002 80.6652 22.6569 80.6652 23.4683C80.6652 24.2773 80.0103 24.9347 79.1989 24.9347Z" />
    <path d="M79.1989 33.7452H48.4078C47.5964 33.7452 46.9414 33.0902 46.9414 32.2789C46.9414 31.4675 47.5964 30.8125 48.4078 30.8125H79.1989C80.0103 30.8125 80.6652 31.4675 80.6652 32.2789C80.6652 33.0902 80.0103 33.7452 79.1989 33.7452Z" />
    <path d="M61.6001 38.1573H48.4078C47.5964 38.1573 46.9414 37.5024 46.9414 36.691C46.9414 35.8796 47.5964 35.2246 48.4078 35.2246H61.6001C62.4115 35.2246 63.0665 35.8796 63.0665 36.691C63.0665 37.5024 62.4115 38.1573 61.6001 38.1573Z" />
    <path d="M55.7273 45.4776H48.4078C47.5964 45.4776 46.9414 44.8227 46.9414 44.0113C46.9414 43.1999 47.5964 42.5449 48.4078 42.5449H55.7273C56.5387 42.5449 57.1937 43.1999 57.1937 44.0113C57.1937 44.8227 56.5387 45.4776 55.7273 45.4776Z" />
    <path d="M61.586 44.0108H60.1148C59.3034 44.0108 58.6484 43.3559 58.6484 42.5445C58.6484 41.7331 59.3034 41.0781 60.1148 41.0781H61.586C62.3974 41.0781 63.0524 41.7331 63.0524 42.5445C63.0524 43.3559 62.3974 44.0108 61.586 44.0108Z" />
    <path d="M61.589 46.9426C61.0513 46.9426 60.5357 46.6469 60.2766 46.1336L58.8054 43.2009C58.4412 42.4775 58.7321 41.5977 59.4579 41.2335C60.1813 40.8718 61.0611 41.1627 61.4253 41.8861L62.899 44.8188C63.2607 45.5422 62.9698 46.4245 62.2464 46.7886C62.0362 46.8937 61.8114 46.9426 61.589 46.9426Z" />
    <path d="M61.589 46.9425H60.1226C59.3112 46.9425 58.6562 46.2875 58.6562 45.4761C58.6562 44.6647 59.3112 44.0098 60.1226 44.0098H61.589C62.4004 44.0098 63.0553 44.6647 63.0553 45.4761C63.0553 46.2875 62.4004 46.9425 61.589 46.9425Z" />
    <path d="M18.3627 68.8993C15.5327 68.8993 13.2305 66.5971 13.2305 63.767C13.2305 60.9369 15.5327 58.6348 18.3627 58.6348C21.1928 58.6348 23.495 60.9369 23.495 63.767C23.495 66.5971 21.1904 68.8993 18.3627 68.8993ZM18.3627 61.5675C17.1505 61.5675 16.1632 62.5548 16.1632 63.767C16.1632 64.9792 17.1505 65.9666 18.3627 65.9666C19.5749 65.9666 20.5623 64.9792 20.5623 63.767C20.5623 62.5524 19.5749 61.5675 18.3627 61.5675Z" />
    <path d="M46.9565 68.8993C44.1264 68.8993 41.8242 66.5971 41.8242 63.767C41.8242 60.9369 44.1264 58.6348 46.9565 58.6348C49.7866 58.6348 52.0887 60.9369 52.0887 63.767C52.0887 66.5971 49.7866 68.8993 46.9565 68.8993ZM46.9565 61.5675C45.7418 61.5675 44.7569 62.5548 44.7569 63.767C44.7569 64.9792 45.7418 65.9666 46.9565 65.9666C48.1687 65.9666 49.156 64.9792 49.156 63.767C49.156 62.5524 48.1711 61.5675 46.9565 61.5675Z" />
    <path d="M75.5541 68.8993C72.7241 68.8993 70.4219 66.5971 70.4219 63.767C70.4219 60.9369 72.7241 58.6348 75.5541 58.6348C78.3842 58.6348 80.6864 60.9369 80.6864 63.767C80.6864 66.5971 78.3818 68.8993 75.5541 68.8993ZM75.5541 61.5675C74.3419 61.5675 73.3546 62.5548 73.3546 63.767C73.3546 64.9792 74.3419 65.9666 75.5541 65.9666C76.7663 65.9666 77.7537 64.9792 77.7537 63.767C77.7537 62.5524 76.7663 61.5675 75.5541 61.5675Z" />
    <path d="M42.5265 45.4347H13.1968C12.3854 45.4347 11.7305 44.7797 11.7305 43.9683C11.7305 43.1569 12.3854 42.502 13.1968 42.502H42.5265C43.3379 42.502 43.9928 43.1569 43.9928 43.9683C43.9953 44.7773 43.3379 45.4347 42.5265 45.4347Z" />
    <path d="M16.1296 45.4341C15.8974 45.4341 15.6604 45.3779 15.4404 45.263C14.7268 44.8817 14.4555 43.9921 14.8368 43.2761L26.5701 21.2709C26.9538 20.5597 27.8336 20.2884 28.5546 20.6672C29.2682 21.0485 29.5419 21.9381 29.1582 22.6542L17.4273 44.6593C17.161 45.1506 16.6551 45.4341 16.1296 45.4341Z" />
    <path d="M39.5998 45.4346C39.0768 45.4346 38.5684 45.1535 38.3045 44.6574L26.5712 22.6522C26.1899 21.9386 26.4612 21.049 27.1748 20.6653C27.8933 20.2865 28.778 20.5578 29.1617 21.2689L40.895 43.2741C41.2763 43.9878 41.005 44.8773 40.2914 45.261C40.0666 45.3784 39.8319 45.4346 39.5998 45.4346Z" />
    <path d="M27.8648 45.4345C27.0534 45.4345 26.3984 44.7795 26.3984 43.9681V21.9605C26.3984 21.1491 27.0534 20.4941 27.8648 20.4941C28.6762 20.4941 29.3312 21.1491 29.3312 21.9605V43.9657C29.3312 44.7771 28.6762 45.4345 27.8648 45.4345Z" />
    <path d="M42.5289 45.4352C41.7175 45.4352 41.0625 44.7802 41.0625 43.9689V42.4976C41.0625 41.6862 41.7175 41.0312 42.5289 41.0312C43.3402 41.0312 43.9952 41.6862 43.9952 42.4976V43.9689C43.9977 44.7778 43.3402 45.4352 42.5289 45.4352Z" />
    <path d="M13.1968 45.4352C12.3854 45.4352 11.7305 44.7802 11.7305 43.9689V42.4976C11.7305 41.6862 12.3854 41.0312 13.1968 41.0312C14.0082 41.0312 14.6632 41.6862 14.6632 42.4976V43.9689C14.6632 44.7778 14.0082 45.4352 13.1968 45.4352Z" />
  </symbol>
  <symbol id="icon-play" viewBox="0 0 11 13">
    <path d="M9.95916 4.52423C11.235 5.30414 11.235 7.15714 9.95917 7.93705L3.04371 12.1646C1.71101 12.9793 0.00055642 12.0201 0.000556489 10.4581L0.000556858 2.00314C0.000556927 0.441145 1.71101 -0.517967 3.04371 0.296728L9.95916 4.52423Z" />
  </symbol>
  <symbol id="icon-pointer" viewBox="-469 269 19.3 23.9">
    <path style="stroke-width:2;stroke-miterlimit:10;" d="M-450.7,278.6c0,3.5-4.7,9.7-7.2,12.6
	c-0.8,0.9-2.1,0.9-2.9,0c-2.5-2.9-7.2-9.1-7.2-12.6c0-4.8,3.9-8.6,8.6-8.6C-454.6,270-450.7,273.9-450.7,278.6z" />
    <path style="fill:#fff;stroke-width:2;stroke-miterlimit:10;" d="M-459.3,282c1.9,0,3.5-1.6,3.5-3.5
	s-1.6-3.5-3.5-3.5c-1.9,0-3.5,1.6-3.5,3.5S-461.3,282-459.3,282z" />
  </symbol>
  <symbol id="icon-search" viewBox="0 0 19 20">
    <g>
      <path d="M0.949219 8.94356C0.949219 4.54433 4.45816 0.96875 8.77539 0.96875C13.0926 0.96875 16.6016 4.54433 16.6016 8.94356C16.6016 11.5308 15.3939 13.8273 13.5205 15.2808C12.1987 16.3079 10.5536 16.9184 8.77539 16.9184C4.45816 16.9184 0.949219 13.3525 0.949219 8.94356Z" stroke-width="2" stroke-miterlimit="10" />
      <path d="M17.5156 19.3123L13.3125 14.5352" stroke-width="2" stroke-miterlimit="10" />
    </g>
  </symbol>
  <symbol id="icon-telegram-active" viewBox="0 0 24 24">
    <path d="M11.6701 22.3401C17.563 22.3401 22.3401 17.563 22.3401 11.6701C22.3401 5.77715 17.563 1 11.6701 1C5.77715 1 1 5.77715 1 11.6701C1 17.563 5.77715 22.3401 11.6701 22.3401Z" stroke="none" stroke-width="1.7" stroke-miterlimit="10" />
    <path d="M9.42079 13.4508L9.22785 16.207C9.51266 16.207 9.63209 16.0876 9.77909 15.9406L11.0929 14.6819L13.8215 16.6755C14.3176 16.9512 14.6759 16.8042 14.8045 16.2162L16.5961 7.82819C16.7522 7.0932 16.3296 6.79921 15.8427 6.98296L5.32325 11.007C4.60664 11.2826 4.61583 11.6868 5.20382 11.8706L7.8957 12.7066L14.1431 8.80204C14.437 8.60911 14.7035 8.71935 14.483 8.91229L9.42079 13.4508Z" fill="#FAFAFA" stroke="none" />
  </symbol>
  <symbol id="icon-telegram" viewBox="0 0 24 24">
    <path fill-rule="evenodd" clip-rule="evenodd" d="M2.53203 11.6685C2.53203 6.24503 6.92862 1.84844 12.3521 1.84844C17.7756 1.84844 22.1722 6.24503 22.1722 11.6685C22.1722 17.092 17.7756 21.4886 12.3521 21.4886C6.92862 21.4886 2.53203 17.092 2.53203 11.6685ZM12.3521 0.148438C5.98974 0.148438 0.832031 5.30614 0.832031 11.6685C0.832031 18.0309 5.98974 23.1886 12.3521 23.1886C18.7144 23.1886 23.8722 18.0309 23.8722 11.6685C23.8722 5.30614 18.7144 0.148438 12.3521 0.148438ZM9.90842 16.2049L10.1014 13.4487L15.1636 8.91023C15.384 8.71729 15.1176 8.60705 14.8236 8.79998L8.57627 12.7046L5.88439 11.8685C5.2964 11.6848 5.28721 11.2805 6.00382 11.0049L16.5233 6.98089C17.0102 6.79715 17.4328 7.09114 17.2766 7.82613L15.4851 16.2141C15.3565 16.8021 14.9982 16.9491 14.5021 16.6735L11.7734 14.6798L10.4597 15.9385C10.3127 16.0855 10.1932 16.2049 9.90842 16.2049Z" fill="black" />
  </symbol>
  <symbol id="icon-viber-active" viewBox="0 0 24 26">
    <path fill-rule="evenodd" clip-rule="evenodd" d="M20.7193 2.49752C22.7525 4.32933 23.8797 8.36537 23.1148 14.7667C22.4564 20.3996 18.6658 21.405 17.3817 21.7455C17.2524 21.7798 17.1486 21.8074 17.0758 21.8322C16.7336 21.9429 13.694 22.728 9.73852 22.3858C9.59481 22.557 9.45857 22.7196 9.32925 22.874C7.33012 25.26 6.98458 25.6724 6.26612 25.4455C5.60184 25.2342 5.64209 24.1975 5.64209 24.1975L5.65216 21.6309H5.64209C-0.135169 19.9501 -0.0546458 13.7501 0.0158086 10.4387C0.0761981 7.12738 0.700223 4.46018 2.46158 2.63843C6.37684 -1.08559 17.4382 -0.622606 20.7193 2.49752Z" stroke="none" />
    <path d="M15.8646 12.5758C15.3412 12.2738 14.8078 12.4651 14.5864 12.757L14.1234 13.3508C13.8919 13.6527 13.449 13.6125 13.449 13.6125C10.2484 12.767 9.39286 9.41541 9.39286 9.41541C9.39286 9.41541 9.3526 8.96249 9.64449 8.72093L10.2182 8.24788C10.5101 8.01639 10.6912 7.46282 10.3994 6.91931C9.61429 5.50016 9.08084 5.00698 8.81916 4.63458C8.53734 4.2823 8.11461 4.20178 7.67176 4.44334H7.6617C6.74579 4.97678 5.73929 5.98327 6.06137 7.01996C6.61494 8.10697 7.62143 11.5894 10.8321 14.2164C12.3419 15.4644 14.7373 16.7326 15.7539 17.0245L15.764 17.0346C16.7604 17.3667 17.7367 16.3199 18.2601 15.3738V15.3638C18.4915 14.9109 18.411 14.468 18.0789 14.1862C17.475 13.6326 16.5691 12.9885 15.8646 12.5758Z" stroke="none" fill="#FAFAFA" />
  </symbol>
  <symbol id="icon-viber" viewBox="0 0 24 26">
    <path fill-rule="evenodd" clip-rule="evenodd" d="M20.7193 2.49752C22.7525 4.32933 23.8797 8.36537 23.1148 14.7667C22.4564 20.3996 18.6658 21.405 17.3817 21.7455C17.2524 21.7798 17.1486 21.8074 17.0758 21.8322C16.7336 21.9429 13.694 22.728 9.73852 22.3858C9.59481 22.557 9.45857 22.7196 9.32925 22.874C7.33012 25.26 6.98458 25.6724 6.26612 25.4455C5.60184 25.2342 5.64209 24.1975 5.64209 24.1975L5.65216 21.6309H5.64209C-0.135169 19.9501 -0.0546458 13.7501 0.0158086 10.4387C0.0761981 7.12738 0.700223 4.46018 2.46158 2.63843C6.37684 -1.08559 17.4382 -0.622606 20.7193 2.49752ZM6.83982 24.5196C7.61482 23.7043 10.121 20.5842 10.121 20.5842C13.4827 20.8056 16.1499 20.1212 16.4317 20.0306C16.4978 20.0089 16.5925 19.9861 16.7103 19.9578C17.7933 19.6975 20.8208 18.9699 21.3836 14.3037C21.3827 14.279 21.3914 14.1895 21.4054 14.0452C21.5402 12.6589 22.166 6.22086 19.431 3.79589C16.9651 1.4709 7.26255 0.756287 3.82035 3.97706C2.32067 5.50693 1.81743 7.77154 1.7671 10.5293C1.76531 10.6278 1.7632 10.7294 1.76104 10.834C1.70256 13.6594 1.59986 18.6211 6.32651 19.9702C6.32651 19.9702 6.30638 23.8955 6.30638 24.2377C6.30638 24.7611 6.5882 24.7812 6.83982 24.5196ZM13.7325 13.7574C13.954 13.4656 14.4874 13.2743 15.0108 13.5763C15.7153 13.9889 16.6212 14.6331 17.2251 15.1867C17.5572 15.4685 17.6377 15.9113 17.4062 16.3643V16.3743C16.8828 17.3204 15.9065 18.3672 14.9101 18.035L14.9001 18.025C13.8835 17.7331 11.488 16.4649 9.9783 15.2168C7.33627 13.0552 6.18679 10.3142 5.55403 8.8054C5.41784 8.48064 5.30558 8.21296 5.20753 8.02043C4.88546 6.98374 5.89195 5.97725 6.80786 5.44381H6.81792C7.26078 5.20225 7.6835 5.28277 7.96532 5.63505C8.03171 5.72952 8.11559 5.83177 8.21663 5.95494C8.51386 6.31727 8.95962 6.86065 9.54552 7.91978C9.8374 8.46329 9.65623 9.01686 9.36435 9.24835L8.79065 9.7214C8.49877 9.96296 8.53903 10.4159 8.53903 10.4159C8.53903 10.4159 9.39455 13.7675 12.5952 14.613C12.5952 14.613 13.038 14.6532 13.2695 14.3513L13.7325 13.7574Z" />
  </symbol>
  <symbol id="icon-vk" viewBox="0 0 40 40">
    <circle cx="20" cy="20" r="19.25" stroke-width="1.5" fill="none" />
    <path stroke="none" d="M25.9368 20.7343C25.6458 20.3843 25.729 20.2286 25.9368 19.9157C25.9405 19.9121 28.3428 16.7507 28.5904 15.6786L28.5919 15.6779C28.7149 15.2871 28.5919 15 27.9971 15H26.029C25.528 15 25.297 15.2464 25.1732 15.5221C25.1732 15.5221 24.1712 17.8064 22.7537 19.2871C22.2961 19.715 22.0846 19.8521 21.8349 19.8521C21.7119 19.8521 21.5206 19.715 21.5206 19.3243V15.6779C21.5206 15.2093 21.3804 15 20.9656 15H17.871C17.5567 15 17.37 15.2186 17.37 15.4221C17.37 15.8664 18.0787 15.9686 18.1522 17.2186V19.9307C18.1522 20.525 18.039 20.6343 17.7877 20.6343C17.1187 20.6343 15.4949 18.3407 14.5326 15.7157C14.3384 15.2064 14.1486 15.0007 13.6438 15.0007H11.675C11.1133 15.0007 11 15.2471 11 15.5229C11 16.01 11.669 18.4321 14.1111 21.6321C15.7387 23.8164 18.0307 25 20.1158 25C21.3691 25 21.5221 24.7371 21.5221 24.285C21.5221 22.1979 21.4089 22.0007 22.0366 22.0007C22.3276 22.0007 22.8287 22.1379 23.9987 23.1914C25.336 24.4407 25.5558 25 26.3043 25H28.2723C28.8334 25 29.1176 24.7371 28.9541 24.2186C28.5799 23.1279 26.0508 20.8843 25.9368 20.7343Z" />
  </symbol>
  <symbol id="icon-whatsapp-active" viewBox="0 0 24 24">
    <path fill-rule="evenodd" clip-rule="evenodd" d="M11.6685 0C14.7616 0.00926074 17.6695 1.21316 19.855 3.39869C22.0406 5.58423 23.2445 8.4921 23.2537 11.5759C23.2445 17.9566 18.0584 23.1518 11.6778 23.1518H11.6685C9.73304 23.1518 7.83459 22.6703 6.13987 21.7442L0 23.3556L1.63915 17.3639C0.620469 15.6043 0.0926074 13.6133 0.0926074 11.5759C0.101868 5.19528 5.28788 0 11.6685 0Z" stroke="none" />
    <path fill-rule="evenodd" clip-rule="evenodd" d="M15.1774 13.0595C15.4367 13.1614 16.8628 13.856 17.1499 14.0041C17.2008 14.0287 17.2487 14.0513 17.2937 14.0725C17.5024 14.1707 17.6462 14.2385 17.7148 14.3375C17.7889 14.4579 17.7889 15.0321 17.5481 15.7081C17.3074 16.3749 16.1498 16.9954 15.5941 17.0787C15.094 17.1528 14.4643 17.1898 13.7698 16.9676C13.7519 16.9616 13.7338 16.9556 13.7154 16.9495C13.3066 16.8133 12.7861 16.64 12.1213 16.3564C9.42914 15.1952 7.60772 12.596 7.24325 12.0759C7.2153 12.0361 7.19593 12.0084 7.18537 11.9946C7.0372 11.8001 6 10.4202 6 9.00334C6 7.65919 6.66673 6.95678 6.96448 6.6431C6.9806 6.62612 6.99563 6.61028 7.00942 6.59554C7.26872 6.30846 7.58359 6.23438 7.77806 6.23438C7.97254 6.23438 8.16701 6.23438 8.33371 6.24364C8.35424 6.24472 8.37565 6.24466 8.39783 6.24461C8.56572 6.24418 8.77745 6.24365 8.98196 6.73446C9.05061 6.90081 9.14637 7.13492 9.24991 7.38806C9.5095 8.02273 9.81803 8.77702 9.87099 8.88295C9.94507 9.03112 9.99138 9.19781 9.89877 9.39229C9.80616 9.58676 9.4913 9.99423 9.17643 10.3832C9.1647 10.3974 9.15266 10.4116 9.1406 10.4258C9.01934 10.5686 8.89517 10.7148 9.04678 10.9759L9.0531 10.9862C9.23616 11.2849 9.80694 12.2165 10.6582 12.9762C11.5682 13.7869 12.3646 14.1365 12.7761 14.3171C12.8629 14.3552 12.9326 14.3858 12.9826 14.4116C13.2789 14.5505 13.4456 14.532 13.6123 14.3375C13.779 14.1523 14.3347 13.4948 14.5291 13.2077C14.7236 12.9114 14.9088 12.9669 15.1774 13.0595Z" stroke="none" fill="#FAFAFA" />
  </symbol>
  <symbol id="icon-whatsapp" viewBox="0 0 24 24">
    <path fill-rule="evenodd" clip-rule="evenodd" d="M12.0123 0C15.1054 0.00926074 18.0132 1.21316 20.1988 3.39869C22.3843 5.58423 23.5882 8.4921 23.5975 11.5759C23.5882 17.9566 18.4022 23.1518 12.0215 23.1518H12.0123C10.0768 23.1518 8.17834 22.6703 6.48362 21.7442L0.34375 23.3556L1.9829 17.3639C0.964219 15.6043 0.436357 13.6133 0.436357 11.5759C0.445618 5.19527 5.63163 0 12.0123 0ZM7.11335 19.8643C8.58581 20.7441 10.2805 21.2071 12.0123 21.2071C17.3187 21.2071 21.6342 16.8916 21.6249 11.5852C21.6249 9.0107 20.6248 6.59365 18.8097 4.77854C16.9946 2.95418 14.5775 1.95402 12.0123 1.95402C6.70588 1.95402 2.39037 6.26952 2.39037 11.5759C2.39037 13.391 2.89971 15.1691 3.86283 16.6971L4.09435 17.0583L3.12197 20.6051L6.76144 19.6513L7.11335 19.8643ZM15.3184 13.0576C15.5777 13.1595 17.0038 13.8541 17.2909 14.0022C17.3418 14.0268 17.3897 14.0494 17.4346 14.0706C17.6434 14.1688 17.7872 14.2366 17.8558 14.3356C17.9299 14.456 17.9299 15.0302 17.6891 15.7062C17.4483 16.373 16.2907 16.9935 15.7351 17.0768C15.235 17.1509 14.6053 17.1879 13.9107 16.9657C13.8928 16.9597 13.8747 16.9537 13.8564 16.9476C13.4476 16.8114 12.927 16.6381 12.2623 16.3545C9.57012 15.1933 7.74869 12.5941 7.38422 12.074C7.35628 12.0342 7.3369 12.0065 7.32635 11.9927C7.17817 11.7982 6.14097 10.4183 6.14097 9.00144C6.14097 7.65729 6.80771 6.95488 7.10545 6.6412C7.12157 6.62423 7.1366 6.60839 7.15039 6.59365C7.40969 6.30656 7.72456 6.23248 7.91903 6.23248C8.11351 6.23248 8.30799 6.23248 8.47468 6.24174C8.49521 6.24282 8.51662 6.24276 8.5388 6.24271C8.7067 6.24228 8.91843 6.24175 9.12293 6.73256C9.19158 6.8989 9.28733 7.133 9.39087 7.38613C9.65047 8.0208 9.959 8.77512 10.012 8.88105C10.086 9.02922 10.1324 9.19591 10.0397 9.39039C9.94714 9.58486 9.63227 9.99234 9.3174 10.3813C9.30567 10.3955 9.29364 10.4097 9.28157 10.4239C9.16032 10.5667 9.03615 10.7129 9.18775 10.974L9.19407 10.9843C9.37714 11.2831 9.94792 12.2146 10.7991 12.9743C11.7092 13.785 12.5056 14.1346 12.9171 14.3152C13.0039 14.3533 13.0736 14.3839 13.1236 14.4097C13.4199 14.5486 13.5866 14.5301 13.7533 14.3356C13.92 14.1504 14.4756 13.4929 14.6701 13.2058C14.8646 12.9095 15.0498 12.965 15.3184 13.0576Z" />
  </symbol>
</svg>