<svg viewBox="0 0 163 35" fill="none" xmlns="http://www.w3.org/2000/svg">
<path fill-rule="evenodd" clip-rule="evenodd" d="M78.0623 23.0612L80.6873 10.6099C81.0937 8.87819 82.3531 8.20455 83.1805 7.83112H78.1722C75.5142 7.83112 73.4714 8.32537 72.9478 11.0565L69.1806 30.8263C68.5582 33.3085 67.7088 33.5904 67.1523 33.9602L74.5038 33.9419C76.5467 33.9419 78.1502 32.8912 79.4206 30.9618L85.4687 22.1532L83.3196 30.808C82.9645 32.7704 81.2731 33.5062 80.5738 33.9419L86.2668 34.0151C90.5466 33.9419 90.6345 31.4084 91.1946 28.399L94.2956 10.6026C94.6104 9.28823 96.1481 8.08374 96.9718 7.83112L91.6779 7.77621C90.5613 7.76522 89.6167 8.02516 89.2469 8.27777C87.5592 9.33582 86.362 11.3274 85.1758 12.9054C84.3631 13.9927 78.4248 23.0319 78.0623 23.0612ZM82.8767 3.98333C83.4734 3.77831 84.5205 3.39756 86.3327 3.83323C88.1193 4.26157 90.067 4.95718 92.7689 2.74955C93.2631 2.34683 94.2882 1.17895 94.3871 0.318597C93.9514 0.589517 92.9629 1.46817 90.9493 0.94098C89.7888 0.637111 88.6721 0.164832 87.4713 0.02205C85.2637 -0.230564 83.0194 1.72445 82.8767 3.98333Z" fill="url(#paint0_linear)"/>
<path fill-rule="evenodd" clip-rule="evenodd" d="M68.2458 16.6159C68.6961 13.1086 66.9132 10.242 63.8379 8.72265C61.2605 7.4486 55.9226 7.62067 53.2647 8.66773C50.2553 9.85392 48.1355 11.7613 46.9091 14.7891C46.3416 16.1876 44.9614 23.5646 44.8808 25.1426C44.4195 34.2111 53.1548 35.3533 60.0633 33.3031C61.3483 32.9224 62.9555 31.8533 63.9221 30.9234C66.9644 27.8994 67.6161 21.5181 68.2458 16.6159ZM56.4718 14.2436C57.7019 13.9104 60.1621 14.0422 60.9017 15.3492C61.1543 15.7958 61.3227 16.5573 61.1506 17.4067L59.4263 25.8199C59.2249 26.8047 58.2035 27.471 56.7903 27.7456C54.1067 28.2655 51.328 27.3246 52.1297 24.1394L53.7406 16.3889C53.9639 15.3272 55.0073 14.6389 56.4718 14.2436Z" fill="url(#paint1_linear)"/>
<path fill-rule="evenodd" clip-rule="evenodd" d="M116.809 10.3157C115.367 8.68286 113.576 8.02386 111.607 7.79688L102.52 7.80054C101.462 7.80054 100.477 7.94332 99.8986 8.29478C98.0534 9.41873 98.2364 11.0626 97.8337 12.9077L94.9122 29.9317C94.4765 33.1754 92.3055 33.7502 91.7344 33.9443H97.6141C99.862 33.9882 101.352 33.1645 101.692 31.8355L102.835 26.0071L109.421 25.9924C111.12 25.8167 112.921 25.1943 114.327 24.2168C118.156 21.5552 120.185 14.1415 116.809 10.3157ZM105.676 14.2294L108.491 14.2404C110.333 14.2623 111.259 15.6059 110.885 17.3413C110.578 18.7874 109.26 19.6148 108.348 19.6221L104.947 19.6405C104.497 19.6441 104.153 19.4135 104.208 18.9485L104.848 15.0019C105.053 14.1196 105.24 14.2916 105.676 14.2294Z" fill="url(#paint2_linear)"/>
<path fill-rule="evenodd" clip-rule="evenodd" d="M130.334 29.6364L130.755 32.5177C130.865 33.2719 131.348 33.9455 132.582 33.9492L135.961 33.9419C137.887 33.9419 137.949 32.342 137.744 31.456L134.112 10.4963C133.856 9.17835 133.874 7.83473 132.417 7.83107L128.218 7.81643C127.178 7.81277 126.925 8.26674 126.508 9.0795L115.041 31.5219C114.375 32.6641 113.456 33.5794 112.395 33.9419H118.692C119.739 33.9419 120.676 33.7808 121.13 33.389C122.012 32.6312 122.851 30.6835 123.359 29.5815L130.334 29.6364ZM125.637 23.7055L129.111 16.1197L129.785 23.6725L125.637 23.7055Z" fill="url(#paint3_linear)"/>
<path fill-rule="evenodd" clip-rule="evenodd" d="M154.616 14.2453L158.925 14.2489C161.836 14.2233 161.697 12.5099 161.872 11.6605L163 5.25C161.389 7.19769 159.588 7.83472 156.549 7.83472H143.003C141.561 7.83472 140.342 8.05438 139.906 9.75678L138.328 16.5334C139.972 14.9555 141.396 14.1611 147.096 14.2855L144.157 30.6762C143.534 32.9021 141.788 33.627 141.14 33.9601L148.997 33.8979C150.728 33.821 151.266 31.8111 151.632 29.8964L154.616 14.2453Z" fill="url(#paint4_linear)"/>
<path fill-rule="evenodd" clip-rule="evenodd" d="M27.7378 24.8772C29.766 23.8558 38.721 16.0467 38.721 5.01953C38.084 5.33438 36.5463 7.81659 34.3863 9.29567C26.3978 14.7763 22.3304 12.7993 13.6536 14.3955C7.1186 15.6 1.20597 19.9421 0.309004 26.8835C0.063712 28.7945 -0.324362 33.0304 0.49938 34.7182C0.931387 34.4948 0.83986 34.2715 1.22061 33.9457C3.60031 31.8955 6.40469 32.4629 9.44339 32.9901C16.6228 34.2349 22.561 33.283 28.7775 29.2595C29.6855 28.6701 35.0013 24.4928 35.2064 23.7386C34.4522 23.8008 28.9899 25.463 27.7378 24.8772Z" fill="url(#paint5_linear)"/>
<defs>
<linearGradient id="paint0_linear" x1="68.1601" y1="23.9824" x2="94.795" y2="14.1042" gradientUnits="userSpaceOnUse">
<stop stop-color="#E42313"/>
<stop offset="0.27" stop-color="#E53012"/>
<stop offset="1" stop-color="#E50059"/>
</linearGradient>
<linearGradient id="paint1_linear" x1="47.078" y1="24.6038" x2="66.151" y2="17.4219" gradientUnits="userSpaceOnUse">
<stop stop-color="#E42313"/>
<stop offset="0.27" stop-color="#E53012"/>
<stop offset="1" stop-color="#E50059"/>
</linearGradient>
<linearGradient id="paint2_linear" x1="91.8397" y1="24.4383" x2="114.737" y2="14.5139" gradientUnits="userSpaceOnUse">
<stop stop-color="#E42313"/>
<stop offset="0.27" stop-color="#E53012"/>
<stop offset="1" stop-color="#E50059"/>
</linearGradient>
<linearGradient id="paint3_linear" x1="113.867" y1="28.3947" x2="134.565" y2="19.8737" gradientUnits="userSpaceOnUse">
<stop stop-color="#E42313"/>
<stop offset="0.27" stop-color="#E53012"/>
<stop offset="1" stop-color="#E50059"/>
</linearGradient>
<linearGradient id="paint4_linear" x1="140.837" y1="22.5954" x2="162.601" y2="14.6835" gradientUnits="userSpaceOnUse">
<stop stop-color="#E42313"/>
<stop offset="0.27" stop-color="#E53012"/>
<stop offset="1" stop-color="#E50059"/>
</linearGradient>
<linearGradient id="paint5_linear" x1="7.03799" y1="32.1364" x2="33.9245" y2="9.70036" gradientUnits="userSpaceOnUse">
<stop stop-color="#BB1C0E"/>
<stop offset="0.27" stop-color="#CE014E"/>
<stop offset="1" stop-color="#E53012"/>
</linearGradient>
</defs>
</svg>
