<svg viewBox="0 0 86 86" fill="none" xmlns="http://www.w3.org/2000/svg">
<path d="M26.2495 28.2852C24.7197 28.4434 26.1226 24.9677 27.7095 26.5683" stroke="#484848" stroke-miterlimit="10" stroke-linecap="round"/>
<path d="M85.2525 62.4916L61.9579 85.5877L23.2203 46.5174L26.4801 26.8878L46.5149 23.4212L85.2525 62.4916Z" fill="#EED815"/>
<path d="M61.9648 85.4755L23.3091 46.4878L26.5509 26.9582L46.4856 23.5088L85.1412 62.4964L61.9648 85.4755Z" fill="#EED815"/>
<path d="M61.9599 85.3632L23.392 46.4642L26.6158 27.0227L46.4622 23.5905L85.03 62.4896L61.9599 85.3632Z" fill="#EED815"/>
<path d="M61.9667 85.251L23.4809 46.4346L26.6866 27.093L46.4329 23.6781L84.9187 62.4945L61.9667 85.251Z" fill="#EED815"/>
<path d="M61.9598 85.1407L23.5618 46.4129L26.7553 27.1653L46.4075 23.7617L84.8055 62.4895L61.9598 85.1407Z" fill="#EED815"/>
<path d="M61.9647 85.0304L23.6487 46.3853L26.8183 27.2317L46.3763 23.8513L84.6923 62.4964L61.9647 85.0304Z" fill="#EED815"/>
<path d="M61.9618 84.9161L23.7277 46.3537L26.8969 27.2943L46.3548 23.931L84.583 62.4876L61.9618 84.9161Z" fill="#EED815"/>
<path d="M61.9667 84.8059L23.8146 46.3262L26.9599 27.3607L46.3236 24.0206L84.4698 62.4944L61.9667 84.8059Z" fill="#EED815"/>
<path d="M61.9598 84.6955L23.8956 46.3044L27.0287 27.433L46.2982 24.1043L84.3566 62.4895L61.9598 84.6955Z" fill="#EED815"/>
<path d="M61.9666 84.5833L23.9844 46.2749L27.0994 27.5034L46.269 24.1918L84.2453 62.4944L61.9666 84.5833Z" fill="#EED815"/>
<path d="M61.9617 84.4711L24.0673 46.2512L27.1643 27.5678L46.2455 24.2736L84.1341 62.4875L61.9617 84.4711Z" fill="#EED815"/>
<path d="M61.9686 84.3588L24.1562 46.2216L27.2351 27.6382L46.2163 24.3611L84.0228 62.4924L61.9686 84.3588Z" fill="#EED815"/>
<path d="M61.9656 84.2485L24.241 46.1999L27.3078 27.7105L46.1948 24.4448L83.9135 62.4874L61.9656 84.2485Z" fill="#EED815"/>
<path d="M61.9705 84.1343L24.3221 46.1625L27.3708 27.773L46.1636 24.5304L83.8003 62.4904L61.9705 84.1343Z" fill="#EED815"/>
<path d="M61.9636 84.024L24.403 46.1408L27.4395 27.8453L46.1382 24.6141L83.6871 62.4855L61.9636 84.024Z" fill="#EED815"/>
<path d="M61.9724 83.9098L24.4938 46.1093L27.5064 27.9078L46.105 24.6939L83.5778 62.4884L61.9724 83.9098Z" fill="#EED815"/>
<path d="M61.9655 83.7994L24.5748 46.0875L27.5752 27.9801L46.0797 24.7775L83.4646 62.4835L61.9655 83.7994Z" fill="#EED815"/>
<path d="M61.9724 83.6872L24.6636 46.058L27.6519 28.0446L46.0504 24.8651L83.3533 62.4884L61.9724 83.6872Z" fill="#EED815"/>
<path d="M61.9733 83.5809L24.7465 46.0343L27.7168 28.1091L46.027 24.9468L83.2479 62.4874L61.9733 83.5809Z" fill="#EED815"/>
<path d="M61.9684 83.4725L24.8295 46.0145L27.7875 28.1834L45.9977 25.0383L83.1308 62.4903L61.9684 83.4725Z" fill="#EED815"/>
<path d="M61.9733 83.3583L24.9105 45.9771L27.8563 28.2518L45.9723 25.118L83.0234 62.4874L61.9733 83.3583Z" fill="#EED815"/>
<path d="M61.9664 83.248L24.9915 45.9554L27.9193 28.3182L45.9411 25.2076L82.9044 62.4883L61.9664 83.248Z" fill="#EED815"/>
<path d="M61.9752 83.1338L25.0822 45.9239L27.992 28.3866L45.9196 25.2873L82.8009 62.4854L61.9752 83.1338Z" fill="#EED815"/>
<path d="M61.9683 83.0235L25.1632 45.9022L28.055 28.453L45.8884 25.3769L82.6818 62.4864L61.9683 83.0235Z" fill="#EED815"/>
<path d="M61.9771 82.9132L25.254 45.8746L28.1276 28.5253L45.8669 25.4606L82.5784 62.4873L61.9771 82.9132Z" fill="#EED815"/>
<path d="M61.9702 82.7989L25.3349 45.8489L28.1964 28.5937L45.8416 25.5403L82.4652 62.4785L61.9702 82.7989Z" fill="#EED815"/>
<path d="M61.9751 82.6887L25.4159 45.8155L28.2594 28.6601L45.8104 25.6299L82.352 62.4854L61.9751 82.6887Z" fill="#EED815"/>
<path d="M61.9722 82.5783L25.5008 45.7937L28.3321 28.7324L45.7889 25.7135L82.2427 62.4804L61.9722 82.5783Z" fill="#EED815"/>
<path d="M61.979 82.4661L25.5897 45.7641L28.4088 28.7969L45.7596 25.8011L82.1314 62.4853L61.979 82.4661Z" fill="#EED815"/>
<path d="M61.9702 82.3538L25.6686 45.7405L28.4697 28.8614L45.7323 25.8828L82.0163 62.4784L61.9702 82.3538Z" fill="#EED815"/>
<path d="M61.977 82.2416L25.7575 45.7109L28.5405 28.9318L45.703 25.9704L81.905 62.4833L61.977 82.2416Z" fill="#EED815"/>
<path d="M61.9721 82.1293L25.8404 45.6873L28.6054 28.9962L45.6796 26.0522L81.7937 62.4765L61.9721 82.1293Z" fill="#EED815"/>
<path d="M62.2995 82.7425L25.5178 45.6449L28.3249 28.7247L45.6463 25.7346L82.4046 62.8086L62.2995 82.7425Z" fill="url(#paint0_linear)"/>
<path d="M29.9243 30.4287C29.0088 31.3364 28.9965 32.8243 29.9101 33.7457C30.8236 34.6671 32.3057 34.6735 33.2271 33.7599C34.1484 32.8464 34.1548 31.3643 33.2412 30.4429C32.3277 29.5215 30.8456 29.5152 29.9243 30.4287ZM32.5653 33.0925C32.016 33.6371 31.1221 33.6333 30.5775 33.084C30.0329 32.5347 30.0367 31.6408 30.586 31.0962C31.1353 30.5515 32.0292 30.5554 32.5738 31.1047C33.1184 31.654 33.1205 32.542 32.5653 33.0925Z" fill="url(#paint1_radial)"/>
<path d="M31.1449 30.9287C31.1449 30.9287 11.1324 9.94104 10.4732 12.7965C9.81406 15.652 30.5124 31.6612 30.5124 31.6612" stroke="#484848" stroke-miterlimit="10" stroke-linecap="round"/>
<path d="M39.1162 40.7329L38.3549 39.965L36.4294 41.8741L34.9654 40.3975L40.0508 35.3555L41.5148 36.8321L39.5421 38.788L40.3268 39.5794L43.6698 39.0056L45.2275 40.5767L41.0255 41.2174L40.2651 45.7427L38.5435 44.0063L39.1162 40.7329Z" fill="black"/>
<path d="M43.5823 49.1471L41.775 50.939L40.311 49.4624L42.1065 47.6822L45.0898 40.4492L46.6066 41.979L44.5392 46.8163L49.4409 44.8376L50.8346 46.2433L43.5823 49.1471Z" fill="black"/>
<path d="M56.0928 51.5337L51.0075 56.5757L49.5435 55.0991L51.4335 53.2252C50.7934 53.0049 50.2186 52.6378 49.7091 52.1239C49.0298 51.4388 48.6681 50.7668 48.6356 50.1079C48.6031 49.4491 48.9118 48.7917 49.5674 48.1417L51.1621 46.5605L52.6261 48.0371L51.1259 49.5246C50.8187 49.8291 50.6763 50.1343 50.6926 50.4343C50.7149 50.7285 50.8724 51.0291 51.1769 51.3362C51.5576 51.7201 51.9975 51.9984 52.5025 52.177L54.6406 50.0571L56.0987 51.5278L56.0928 51.5337Z" fill="black"/>
<path d="M60.5247 58.427L58.8206 56.7082L54.9461 60.5498L53.4938 59.085L57.3683 55.2434L55.6642 53.5247L56.875 52.3242L61.7355 57.2265L60.5247 58.427Z" fill="black"/>
<path d="M65.7053 61.7627C65.92 62.4282 65.9467 63.0694 65.7852 63.7098C65.6236 64.3501 65.2978 64.9075 64.7898 65.4111C64.2937 65.903 63.7277 66.2299 63.0918 66.3919C62.4559 66.5538 61.8208 66.5394 61.1924 66.3426C60.558 66.1517 59.989 65.8022 59.4854 65.2943C58.9935 64.7982 58.6489 64.238 58.4633 63.6255C58.2777 63.0131 58.2686 62.3896 58.4419 61.7611C58.6151 61.1325 58.9646 60.5635 59.4961 60.0365C59.5138 60.0189 59.6614 59.896 59.9211 59.6737L63.7334 63.5187C63.9762 63.1374 64.0662 62.7202 63.9915 62.2906C63.917 61.8492 63.6893 61.4424 63.3087 61.0585C63.0452 60.7927 62.7696 60.5974 62.4937 60.4727C62.212 60.3422 61.9005 60.2761 61.5536 60.2688L61.6252 58.64C62.6489 58.5738 63.6116 59.0013 64.5251 59.9227C65.0991 60.478 65.4905 61.0972 65.7053 61.7627ZM61.711 64.7274C62.1225 64.7645 62.5229 64.6486 62.8946 64.3738L60.4116 61.8695C60.1396 62.2329 60.0202 62.6324 60.0537 63.0442C60.0814 63.4619 60.2621 63.8332 60.59 64.1639C60.9238 64.5006 61.2994 64.6904 61.711 64.7274Z" fill="black"/>
<path d="M63.4271 68.7621C63.4227 68.4268 63.5416 68.1333 63.7778 67.899C64.0141 67.6648 64.2969 67.5484 64.6321 67.5557C64.9614 67.5689 65.2607 67.7054 65.5184 67.9653C65.7819 68.2311 65.9159 68.5316 65.9204 68.8551C65.9308 69.1845 65.8119 69.4663 65.5698 69.7064C65.3276 69.9465 65.039 70.057 64.7038 70.0497C64.3686 70.0424 64.0692 69.9058 63.8115 69.6459C63.5656 69.3979 63.4374 69.1033 63.4271 68.7621ZM69.6426 62.1428L71.3877 63.9029L66.7773 67.8883L65.6178 66.7189L69.6426 62.1428Z" fill="black"/>
<defs>
<linearGradient id="paint0_linear" x1="76.0799" y1="54.3348" x2="18.8003" y2="54.0898" gradientUnits="userSpaceOnUse">
<stop stop-color="#FFE714"/>
<stop offset="0.2512" stop-color="#F4DE15"/>
<stop offset="0.6887" stop-color="#E2CD16"/>
</linearGradient>
<radialGradient id="paint1_radial" cx="0" cy="0" r="1" gradientUnits="userSpaceOnUse" gradientTransform="translate(31.5767 32.0901) rotate(-44.755) scale(2.34191)">
<stop offset="0.4393" stop-color="#E3E3E3"/>
<stop offset="0.6132" stop-color="#BABABA"/>
<stop offset="0.7273" stop-color="#C8C8C8"/>
<stop offset="0.8879" stop-color="#E3E3E3"/>
<stop offset="1" stop-color="#D7D7D7"/>
</radialGradient>
</defs>
</svg>
