<svg width="92" height="75" viewBox="0 0 92 75" fill="none" xmlns="http://www.w3.org/2000/svg">
<path d="M65.2099 47.7333C66.6643 47.2331 66.0843 50.9361 64.1763 49.7362" stroke="#484848" stroke-miterlimit="10" stroke-linecap="round"/>
<path d="M-0.00114884 27.7676L17.4628 -0.000768979L64.0367 29.2903L65.3034 49.1483L46.5728 57.0586L-0.00114884 27.7676Z" fill="#EED815"/>
<path d="M17.483 0.108036L63.9584 29.3371L65.22 49.0938L46.583 56.9646L0.107658 27.7356L17.483 0.108036Z" fill="#EED815"/>
<path d="M17.5121 0.21837L63.8819 29.381L65.1411 49.0477L46.5862 56.8818L0.216433 27.7192L17.5121 0.21837Z" fill="#EED815"/>
<path d="M17.5324 0.327174L63.8035 29.4279L65.0578 48.9931L46.5964 56.7878L0.325228 27.6872L17.5324 0.327174Z" fill="#EED815"/>
<path d="M17.5607 0.434131L63.7262 29.4684L64.971 48.9393L46.5988 56.7016L0.433249 27.6674L17.5607 0.434131Z" fill="#EED815"/>
<path d="M17.5817 0.546322L63.6487 29.5186L64.8955 48.8925L46.6098 56.611L0.54281 27.6388L17.5817 0.546322Z" fill="#EED815"/>
<path d="M17.61 0.653279L63.5784 29.5635L64.8043 48.8458L46.6122 56.5248L0.650831 27.619L17.61 0.653279Z" fill="#EED815"/>
<path d="M17.631 0.761554L63.5008 29.6098L64.7288 48.7951L46.6232 56.4303L0.760392 27.5864L17.631 0.761554Z" fill="#EED815"/>
<path d="M17.6632 0.872431L63.4275 29.6543L64.646 48.7452L46.6295 56.348L0.872326 27.5706L17.6632 0.872431Z" fill="#EED815"/>
<path d="M17.6795 0.981228L63.3452 29.7011L64.5587 48.6906L46.6358 56.254L0.977208 27.5386L17.6795 0.981228Z" fill="#EED815"/>
<path d="M17.7125 1.08767L63.2726 29.7411L64.4837 48.6407L46.6429 56.1673L1.0899 27.5183L17.7125 1.08767Z" fill="#EED815"/>
<path d="M17.7289 1.20038L63.1903 29.7918L64.3965 48.59L46.6492 56.0772L1.19479 27.4902L17.7289 1.20038Z" fill="#EED815"/>
<path d="M17.7611 1.30733L63.117 29.8324L64.3137 48.5361L46.6556 55.991L1.30671 27.4704L17.7611 1.30733Z" fill="#EED815"/>
<path d="M17.7782 1.41561L63.0425 29.8831L64.2342 48.4855L46.6626 55.8965L1.41238 27.4379L17.7782 1.41561Z" fill="#EED815"/>
<path d="M17.8104 1.52648L62.9691 29.9275L64.1514 48.4355L46.669 55.8142L1.52429 27.422L17.8104 1.52648Z" fill="#EED815"/>
<path d="M17.8275 1.63475L62.8877 29.9738L64.072 48.3849L46.6831 55.7241L1.62995 27.3895L17.8275 1.63475Z" fill="#EED815"/>
<path d="M17.8597 1.74172L62.8143 30.0144L63.9892 48.331L46.6894 55.6379L1.74188 27.3697L17.8597 1.74172Z" fill="#EED815"/>
<path d="M17.8799 1.85442L62.7359 30.0651L63.9014 48.2874L46.6996 55.5478L1.85067 27.3416L17.8799 1.85442Z" fill="#EED815"/>
<path d="M17.902 1.95643L62.6594 30.1051L63.8225 48.2375L46.7028 55.4611L1.95241 27.3169L17.902 1.95643Z" fill="#EED815"/>
<path d="M17.9337 2.06262L62.5855 30.1449L63.7391 48.1829L46.713 55.3671L2.06825 27.2893L17.9337 2.06262Z" fill="#EED815"/>
<path d="M17.9505 2.17219L62.5108 30.1969L63.6524 48.1291L46.7154 55.2809L2.16922 27.2651L17.9505 2.17219Z" fill="#EED815"/>
<path d="M17.983 2.28176L62.4377 30.24L63.5769 48.0823L46.7264 55.1903L2.28583 27.2409L17.983 2.28176Z" fill="#EED815"/>
<path d="M17.9999 2.39134L62.356 30.2876L63.4901 48.0285L46.7288 55.1041L2.38681 27.2167L17.9999 2.39134Z" fill="#EED815"/>
<path d="M18.0323 2.50091L62.2828 30.3308L63.4146 47.9817L46.7398 55.0135L2.50342 27.1925L18.0323 2.50091Z" fill="#EED815"/>
<path d="M18.0531 2.61048L62.205 30.3783L63.3318 47.9278L46.7462 54.9273L2.6083 27.1683L18.0531 2.61048Z" fill="#EED815"/>
<path d="M18.0814 2.71745L62.1277 30.4189L63.2451 47.874L46.7486 54.8411L2.71633 27.1485L18.0814 2.71745Z" fill="#EED815"/>
<path d="M18.1024 2.82572L62.0572 30.4696L63.1695 47.8233L46.7596 54.7466L2.82589 27.116L18.1024 2.82572Z" fill="#EED815"/>
<path d="M18.1307 2.93658L61.9799 30.514L63.0828 47.7734L46.762 54.6643L2.93389 27.1001L18.1307 2.93658Z" fill="#EED815"/>
<path d="M18.151 3.0454L61.9016 30.5608L62.995 47.7259L46.7722 54.5703L3.0427 27.0681L18.151 3.0454Z" fill="#EED815"/>
<path d="M18.18 3.15182L61.8251 30.6009L62.9161 47.676L46.7754 54.4836L3.15149 27.0478L18.18 3.15182Z" fill="#EED815"/>
<path d="M18.2003 3.26453L61.7467 30.6516L62.8328 47.6253L46.7856 54.3935L3.26028 27.0197L18.2003 3.26453Z" fill="#EED815"/>
<path d="M18.2294 3.37097L61.6702 30.6916L62.7539 47.5754L46.7888 54.3067L3.36907 26.9994L18.2294 3.37097Z" fill="#EED815"/>
<path d="M17.7743 2.84957L61.9966 30.6617L63.0911 47.7782L46.8956 54.6104L2.70146 26.816L17.7743 2.84957Z" fill="url(#paint0_linear)"/>
<path d="M61.1471 46.4755C61.8335 45.3842 61.5087 43.9321 60.4104 43.2413C59.312 42.5506 57.867 42.8798 57.1762 43.9781C56.4854 45.0764 56.8146 46.5215 57.913 47.2122C59.0113 47.903 60.4564 47.5738 61.1471 46.4755ZM57.9718 44.4785C58.3836 43.8237 59.2552 43.6251 59.91 44.0369C60.5648 44.4487 60.7633 45.3203 60.3515 45.9751C59.9397 46.6299 59.0681 46.8285 58.4133 46.4167C57.7586 46.0048 57.5556 45.1403 57.9718 44.4785Z" fill="url(#paint1_radial)"/>
<path d="M59.8477 46.2662C59.8477 46.2662 84.0903 62.1809 84.0862 59.2504C84.0821 56.3198 60.2979 45.4097 60.2979 45.4097" stroke="#484848" stroke-miterlimit="10" stroke-linecap="round"/>
<path d="M18.2806 21.6301L17.3672 21.0514L15.9161 23.3418L14.1596 22.229L17.9922 16.1797L19.7487 17.2925L18.2619 19.6392L19.2034 20.2357L22.3342 18.9306L24.2031 20.1147L20.2499 21.6765L20.518 26.2575L18.4524 24.9488L18.2806 21.6301Z" fill="black"/>
<path d="M24.5057 28.8345L23.1436 30.9844L21.3871 29.8716L22.7403 27.7357L24.0352 20.0195L25.8549 21.1724L24.9186 26.349L29.2554 23.3269L30.9276 24.3863L24.5057 28.8345Z" fill="black"/>
<path d="M37.2356 28.3722L33.403 34.4215L31.6465 33.3087L33.0709 31.0604C32.3978 30.9884 31.7556 30.7588 31.1443 30.3715C30.3293 29.8551 29.8268 29.2808 29.6482 28.6457C29.4696 28.0107 29.6238 27.3011 30.1179 26.5212L31.3198 24.6242L33.0762 25.737L31.9456 27.5216C31.7141 27.887 31.6433 28.2163 31.7262 28.5051C31.8135 28.7869 32.0341 29.0448 32.3995 29.2763C32.8562 29.5656 33.3471 29.7388 33.8792 29.8002L35.4906 27.2568L37.24 28.3652L37.2356 28.3722Z" fill="black"/>
<path d="M43.0948 34.1037L41.0502 32.8083L38.1301 37.4173L36.3877 36.3134L39.3078 31.7044L37.2633 30.4091L38.1758 28.9688L44.0073 32.6634L43.0948 34.1037Z" fill="black"/>
<path d="M48.8892 36.1957C49.247 36.7965 49.416 37.4156 49.4014 38.0759C49.3868 38.7361 49.1934 39.3521 48.8106 39.9563C48.4367 40.5465 47.9579 40.9914 47.3742 41.2911C46.7904 41.5908 46.1681 41.7184 45.5116 41.6668C44.8506 41.6222 44.218 41.4084 43.6138 41.0256C43.0236 40.6517 42.5627 40.1825 42.2452 39.6269C41.9277 39.0713 41.7798 38.4655 41.8085 37.8142C41.8371 37.1628 42.0509 36.5302 42.4515 35.8979C42.4648 35.8768 42.5813 35.7241 42.7848 35.4494L47.3587 38.3472C47.5103 37.9214 47.505 37.4947 47.3364 37.0925C47.1653 36.6788 46.8527 36.3331 46.396 36.0437C46.0798 35.8434 45.7676 35.7145 45.4709 35.6545C45.1671 35.5901 44.8488 35.5952 44.5089 35.6654L44.2155 34.0616C45.1985 33.7688 46.2323 33.9709 47.3284 34.6653C48.0118 35.0785 48.5314 35.5948 48.8892 36.1957ZM45.6568 39.9766C46.0663 39.921 46.4307 39.7187 46.7318 39.3678L43.7528 37.4805C43.5686 37.8955 43.5414 38.3115 43.6659 38.7054C43.786 39.1065 44.045 39.4281 44.4385 39.6774C44.8389 39.9311 45.2474 40.0323 45.6568 39.9766Z" fill="black"/>
<path d="M48.2301 43.5291C48.151 43.2033 48.2014 42.8906 48.3794 42.6096C48.5575 42.3285 48.8072 42.152 49.1356 42.0843C49.4595 42.0237 49.7818 42.0901 50.0909 42.2859C50.4071 42.4862 50.6047 42.7493 50.6813 43.0636C50.7648 43.3824 50.7119 43.6836 50.5293 43.9717C50.3468 44.2597 50.0901 44.4319 49.7617 44.4995C49.4333 44.5671 49.1111 44.5008 48.8019 44.3049C48.5068 44.118 48.3162 43.8594 48.2301 43.5291ZM52.8125 35.6902L54.9062 37.0167L51.301 41.9301L49.9098 41.0487L52.8125 35.6902Z" fill="black"/>
<defs>
<linearGradient id="paint0_linear" x1="10.7797" y1="33.6387" x2="66.6289" y2="20.9158" gradientUnits="userSpaceOnUse">
<stop stop-color="#FFE714"/>
<stop offset="0.2512" stop-color="#F4DE15"/>
<stop offset="0.6887" stop-color="#E2CD16"/>
</linearGradient>
<radialGradient id="paint1_radial" cx="0" cy="0" r="1" gradientUnits="userSpaceOnUse" gradientTransform="translate(59.1616 45.2311) rotate(122.166) scale(2.34191)">
<stop offset="0.4393" stop-color="#E3E3E3"/>
<stop offset="0.6132" stop-color="#BABABA"/>
<stop offset="0.7273" stop-color="#C8C8C8"/>
<stop offset="0.8879" stop-color="#E3E3E3"/>
<stop offset="1" stop-color="#D7D7D7"/>
</radialGradient>
</defs>
</svg>
