<svg width="356" height="187" viewBox="0 0 356 187" fill="none" xmlns="http://www.w3.org/2000/svg">
<path d="M199.069 187H133.266L99.5345 130.651L65.8034 187H0L61.6561 92.5332L4.14727 2.76218H69.6742L99.5345 55.2437L128.842 2.76218H194.922L137.413 92.257L199.069 187Z" fill="white" fill-opacity="0.17"/>
<path d="M356 187H205.316V143.634C228.356 127.429 245.222 115.459 255.913 107.725C266.603 99.9911 275.543 92.9936 282.732 86.7327C289.92 80.4717 294.16 75.9601 295.45 73.1979C296.924 70.4358 297.662 67.2132 297.662 63.5303C297.662 59.2949 295.634 55.8882 291.579 53.3102C287.524 50.548 282.455 49.1669 276.372 49.1669C259.046 49.1669 242.826 55.5199 227.711 68.226L197.298 31.2127C207.251 20.5323 219.14 12.7061 232.964 7.73413C246.973 2.57805 261.074 0 275.266 0C299.044 0 318.122 5.98474 332.499 17.9542C347.06 29.7395 354.341 44.9316 354.341 63.5303C354.341 76.4205 350.009 88.5741 341.346 99.9911C332.683 111.408 317.569 124.206 296.003 138.386H356V187Z" fill="white" fill-opacity="0.17"/>
</svg>
